<svg width="447" height="418" viewBox="0 0 447 418" fill="none" xmlns="http://www.w3.org/2000/svg">
<mask id="mask0_588_10105" style="mask-type:alpha" maskUnits="userSpaceOnUse" x="-281" y="-379" width="728" height="797">
<rect x="-281" y="-379" width="728" height="796.556" fill="url(#paint0_radial_588_10105)"/>
</mask>
<g mask="url(#mask0_588_10105)">
<rect x="-1.0271" y="81.5127" width="75.5496" height="82.6915" stroke="white" stroke-opacity="0.25" stroke-width="1.03889"/>
<rect x="74.5253" y="81.5127" width="75.5496" height="82.6915" stroke="white" stroke-opacity="0.25" stroke-width="1.03889"/>
<rect x="150.071" y="81.5127" width="74.7544" height="82.6915" stroke="white" stroke-opacity="0.25" stroke-width="1.03889"/>
<rect x="224.825" y="81.5127" width="75.5496" height="82.6915" stroke="white" stroke-opacity="0.25" stroke-width="1.03889"/>
<rect x="300.379" y="81.5127" width="75.5496" height="82.6915" stroke="white" stroke-opacity="0.25" stroke-width="1.03889"/>
<rect x="-1.0271" y="246.895" width="75.5496" height="82.6915" stroke="white" stroke-opacity="0.25" stroke-width="1.03889"/>
<rect x="74.5253" y="246.895" width="75.5496" height="82.6915" stroke="white" stroke-opacity="0.25" stroke-width="1.03889"/>
<rect x="150.071" y="246.895" width="74.7544" height="82.6915" stroke="white" stroke-opacity="0.25" stroke-width="1.03889"/>
<rect x="224.825" y="246.895" width="75.5496" height="82.6915" stroke="white" stroke-opacity="0.25" stroke-width="1.03889"/>
<rect x="300.379" y="246.895" width="75.5496" height="82.6915" stroke="white" stroke-opacity="0.25" stroke-width="1.03889"/>
<rect x="-1.0271" y="164.204" width="75.5496" height="82.6915" stroke="white" stroke-opacity="0.25" stroke-width="1.03889"/>
<rect x="74.5253" y="164.204" width="75.5496" height="82.6915" stroke="white" stroke-opacity="0.25" stroke-width="1.03889"/>
<rect x="150.071" y="164.204" width="74.7544" height="82.6915" stroke="white" stroke-opacity="0.25" stroke-width="1.03889"/>
<rect x="224.825" y="164.204" width="75.5496" height="82.6915" stroke="white" stroke-opacity="0.25" stroke-width="1.03889"/>
<rect x="300.379" y="164.204" width="75.5496" height="82.6915" stroke="white" stroke-opacity="0.25" stroke-width="1.03889"/>
<rect x="-1.0271" y="-1.17883" width="75.5496" height="82.6915" stroke="white" stroke-opacity="0.25" stroke-width="1.03889"/>
<rect x="74.5253" y="-1.17883" width="75.5496" height="82.6915" stroke="white" stroke-opacity="0.25" stroke-width="1.03889"/>
<rect x="150.071" y="-1.17883" width="74.7544" height="82.6915" stroke="white" stroke-opacity="0.25" stroke-width="1.03889"/>
<rect x="224.825" y="-1.17883" width="75.5496" height="82.6915" stroke="white" stroke-opacity="0.25" stroke-width="1.03889"/>
<rect x="300.379" y="-1.17883" width="75.5496" height="82.6915" stroke="white" stroke-opacity="0.25" stroke-width="1.03889"/>
<rect x="-1.0271" y="329.586" width="75.5496" height="82.6915" stroke="white" stroke-opacity="0.25" stroke-width="1.03889"/>
<rect x="74.5253" y="329.586" width="75.5496" height="82.6915" stroke="white" stroke-opacity="0.25" stroke-width="1.03889"/>
<rect x="150.071" y="329.586" width="74.7544" height="82.6915" stroke="white" stroke-opacity="0.25" stroke-width="1.03889"/>
<rect x="224.825" y="329.586" width="75.5496" height="82.6915" stroke="white" stroke-opacity="0.25" stroke-width="1.03889"/>
<rect x="300.379" y="329.586" width="75.5496" height="82.6915" stroke="white" stroke-opacity="0.25" stroke-width="1.03889"/>
<rect x="375.929" y="81.5127" width="75.5496" height="82.6915" stroke="white" stroke-opacity="0.25" stroke-width="1.03889"/>
<rect x="375.929" y="246.895" width="75.5496" height="82.6915" stroke="white" stroke-opacity="0.25" stroke-width="1.03889"/>
<rect x="375.929" y="164.204" width="75.5496" height="82.6915" stroke="white" stroke-opacity="0.25" stroke-width="1.03889"/>
<rect x="375.929" y="-1.17889" width="75.5496" height="82.6915" stroke="white" stroke-opacity="0.25" stroke-width="1.03889"/>
<rect x="375.929" y="329.586" width="75.5496" height="82.6915" stroke="white" stroke-opacity="0.25" stroke-width="1.03889"/>
</g>
<defs>
<radialGradient id="paint0_radial_588_10105" cx="0" cy="0" r="1" gradientUnits="userSpaceOnUse" gradientTransform="translate(83 19.278) rotate(90) scale(410.882 375.519)">
<stop stop-color="white"/>
<stop offset="1" stop-color="white" stop-opacity="0"/>
</radialGradient>
</defs>
</svg>
