<svg width="419" height="418" viewBox="0 0 419 418" fill="none" xmlns="http://www.w3.org/2000/svg">
<mask id="mask0_588_9860" style="mask-type:alpha" maskUnits="userSpaceOnUse" x="0" y="-379" width="728" height="797">
<rect y="-379" width="728" height="796.556" fill="url(#paint0_radial_588_9860)"/>
</mask>
<g mask="url(#mask0_588_9860)">
<rect x="-32.429" y="81.5127" width="75.5496" height="82.6915" stroke="white" stroke-opacity="0.25" stroke-width="1.03889"/>
<rect x="43.1191" y="81.5127" width="75.5496" height="82.6915" stroke="white" stroke-opacity="0.25" stroke-width="1.03889"/>
<rect x="118.67" y="81.5127" width="74.7544" height="82.6915" stroke="white" stroke-opacity="0.25" stroke-width="1.03889"/>
<rect x="193.425" y="81.5127" width="75.5496" height="82.6915" stroke="white" stroke-opacity="0.25" stroke-width="1.03889"/>
<rect x="268.973" y="81.5127" width="75.5496" height="82.6915" stroke="white" stroke-opacity="0.25" stroke-width="1.03889"/>
<rect x="344.525" y="81.5127" width="75.5496" height="82.6915" stroke="white" stroke-opacity="0.25" stroke-width="1.03889"/>
<rect x="-32.429" y="246.895" width="75.5496" height="82.6915" stroke="white" stroke-opacity="0.25" stroke-width="1.03889"/>
<rect x="43.1191" y="246.895" width="75.5496" height="82.6915" stroke="white" stroke-opacity="0.25" stroke-width="1.03889"/>
<rect x="118.67" y="246.895" width="74.7544" height="82.6915" stroke="white" stroke-opacity="0.25" stroke-width="1.03889"/>
<rect x="193.425" y="246.895" width="75.5496" height="82.6915" stroke="white" stroke-opacity="0.25" stroke-width="1.03889"/>
<rect x="268.973" y="246.895" width="75.5496" height="82.6915" stroke="white" stroke-opacity="0.25" stroke-width="1.03889"/>
<rect x="344.525" y="246.895" width="75.5496" height="82.6915" stroke="white" stroke-opacity="0.25" stroke-width="1.03889"/>
<rect x="-32.429" y="164.204" width="75.5496" height="82.6915" stroke="white" stroke-opacity="0.25" stroke-width="1.03889"/>
<rect x="43.1191" y="164.204" width="75.5496" height="82.6915" stroke="white" stroke-opacity="0.25" stroke-width="1.03889"/>
<rect x="118.67" y="164.204" width="74.7544" height="82.6915" stroke="white" stroke-opacity="0.25" stroke-width="1.03889"/>
<rect x="193.425" y="164.204" width="75.5496" height="82.6915" stroke="white" stroke-opacity="0.25" stroke-width="1.03889"/>
<rect x="268.973" y="164.204" width="75.5496" height="82.6915" stroke="white" stroke-opacity="0.25" stroke-width="1.03889"/>
<rect x="344.525" y="164.204" width="75.5496" height="82.6915" stroke="white" stroke-opacity="0.25" stroke-width="1.03889"/>
<rect x="-32.429" y="-1.17889" width="75.5496" height="82.6915" stroke="white" stroke-opacity="0.25" stroke-width="1.03889"/>
<rect x="43.1191" y="-1.17883" width="75.5496" height="82.6915" stroke="white" stroke-opacity="0.25" stroke-width="1.03889"/>
<rect x="118.67" y="-1.17883" width="74.7544" height="82.6915" stroke="white" stroke-opacity="0.25" stroke-width="1.03889"/>
<rect x="193.425" y="-1.17883" width="75.5496" height="82.6915" stroke="white" stroke-opacity="0.25" stroke-width="1.03889"/>
<rect x="268.973" y="-1.17883" width="75.5496" height="82.6915" stroke="white" stroke-opacity="0.25" stroke-width="1.03889"/>
<rect x="344.525" y="-1.17883" width="75.5496" height="82.6915" stroke="white" stroke-opacity="0.25" stroke-width="1.03889"/>
<rect x="-32.429" y="329.586" width="75.5496" height="82.6915" stroke="white" stroke-opacity="0.25" stroke-width="1.03889"/>
<rect x="43.1191" y="329.586" width="75.5496" height="82.6915" stroke="white" stroke-opacity="0.25" stroke-width="1.03889"/>
<rect x="118.67" y="329.586" width="74.7544" height="82.6915" stroke="white" stroke-opacity="0.25" stroke-width="1.03889"/>
<rect x="193.425" y="329.586" width="75.5496" height="82.6915" stroke="white" stroke-opacity="0.25" stroke-width="1.03889"/>
<rect x="268.973" y="329.586" width="75.5496" height="82.6915" stroke="white" stroke-opacity="0.25" stroke-width="1.03889"/>
<rect x="344.525" y="329.586" width="75.5496" height="82.6915" stroke="white" stroke-opacity="0.25" stroke-width="1.03889"/>
</g>
<defs>
<radialGradient id="paint0_radial_588_9860" cx="0" cy="0" r="1" gradientUnits="userSpaceOnUse" gradientTransform="translate(364 19.278) rotate(90) scale(410.882 375.519)">
<stop stop-color="white"/>
<stop offset="1" stop-color="white" stop-opacity="0"/>
</radialGradient>
</defs>
</svg>
