<svg width="282" height="159" viewBox="0 0 282 159" fill="none" xmlns="http://www.w3.org/2000/svg">
<path d="M281.999 141.198C282.088 218.74 218.611 282.799 139.499 281.992C62.3139 281.186 -0.312407 218.248 0.00117249 140.437C0.314752 62.2227 64.1506 -0.267913 141.515 0.000863771C219.193 0.269641 282.312 63.6114 281.999 141.198ZM132.287 173.765C141.336 173.81 150.385 173.989 159.703 173.272C159.165 167.807 159.568 162.566 158.896 157.414C149.937 157.549 141.202 157.638 132.287 157.773C132.287 163.059 132.287 168.255 132.287 173.765ZM159.613 190.116C159.613 184.83 159.613 179.768 159.613 174.751C150.295 174.885 141.202 175.019 131.973 175.154C131.929 180.35 131.884 185.367 131.884 190.608C141.336 190.788 150.475 190.788 159.613 190.116ZM103.617 171.48C107.514 172.6 128.345 173.989 130.719 173.317C130.853 168.166 130.943 162.969 131.077 157.818C122.163 157.146 113.517 156.519 104.647 155.891C104.334 161.177 103.975 166.374 103.617 171.48ZM102.945 188.503C112.263 189.578 121.356 190.295 130.45 190.474C130.853 187.114 130.809 176.542 130.406 175.109C121.491 174.437 112.621 173.81 103.527 173.138C103.348 178.2 103.124 183.172 102.945 188.503ZM132.959 140.213C132.377 144.11 132.287 154.592 132.78 156.339C141.426 156.832 150.116 156.295 158.941 156.026C158.807 150.426 158.493 145.096 158.09 139.81C149.579 139.989 141.336 140.123 132.959 140.213ZM187.611 170.495C187.119 165.075 186.671 159.878 186.178 154.682C177.353 155.578 168.797 156.474 160.24 157.37C160.42 162.745 160.644 167.897 160.823 173.317C169.827 172.69 178.518 171.884 187.611 170.495ZM161.092 190.071C170.454 189.623 179.369 188.637 188.418 187.249C188.149 182.097 187.925 177.08 187.701 171.973C178.562 172.914 169.782 173.81 161.092 174.706C161.092 179.857 161.092 184.83 161.092 190.071ZM104.871 154.279C110.202 155.443 128.524 156.608 131.122 155.981C131.257 150.74 131.436 145.499 131.57 140.213C123.104 139.586 114.906 139.003 106.529 138.376C105.946 143.707 105.409 148.948 104.871 154.279ZM159.344 139.765C159.658 145.14 159.927 150.426 160.24 155.936C169.021 155.354 177.487 154.592 185.999 153.204C185.372 147.694 184.834 142.408 183.893 137.211C175.651 138.107 167.587 138.914 159.344 139.765ZM159.792 191.683C150.519 191.728 141.426 191.818 132.377 191.863C132.287 191.863 132.153 192.042 131.973 192.176C131.973 196.88 131.973 201.628 131.973 206.556C141.291 206.959 150.475 206.645 159.792 206.197C159.792 201.27 159.792 196.521 159.792 191.683ZM130.54 191.818C126.015 191.594 121.401 191.415 116.832 191.056C112.263 190.743 107.738 190.25 103.169 189.847C102.721 193.61 102.81 202.793 103.348 204.585C112.307 205.615 121.356 206.421 130.54 206.511C130.54 201.539 130.54 196.79 130.54 191.818ZM76.8282 167.135C83.4134 169.017 100.033 171.66 102.363 171.167C102.721 166.015 103.079 160.864 103.438 155.712C95.1054 154.324 87.0419 152.935 78.7097 151.546C78.1273 156.742 77.5001 161.894 76.8282 167.135ZM188.239 203.33C188.687 198.134 188.552 190.25 188.059 188.772C179.1 189.668 170.185 190.608 161.271 191.504C161.271 196.342 161.271 201.091 161.271 206.063C170.365 205.66 179.279 204.63 188.239 203.33ZM102.273 173.003C93.7615 171.57 85.3396 170.181 76.9626 168.748C76.2458 171.66 75.7531 181.694 76.201 184.068C84.5333 185.905 92.9999 187.338 101.735 188.324C101.959 183.127 102.139 178.155 102.273 173.003ZM105.274 138.197C97.3005 136.853 89.6402 135.554 81.8007 134.255C80.8599 139.541 79.6952 144.737 79.1576 150.157C87.3555 151.949 95.3742 153.338 103.617 154.279C104.154 148.814 104.692 143.572 105.274 138.197ZM158.09 138.376C157.732 132.821 157.373 127.58 157.015 122.249C149.041 122.384 141.246 122.563 133.362 122.697C133.183 128.118 133.004 133.359 132.825 138.824C141.291 138.958 149.534 139.003 158.09 138.376ZM213.504 165.299C212.787 159.923 212.339 154.727 211.264 149.71C203.246 151.322 195.406 152.935 187.432 154.547C187.925 159.789 188.373 164.94 188.866 170.316C197.243 169.061 205.306 167.404 213.504 165.299ZM131.525 138.824C131.705 133.225 131.884 127.939 132.108 122.608C124.224 122.026 116.608 121.488 108.858 120.95C108.052 126.281 107.201 131.522 106.797 136.987C115.04 138.018 123.104 138.466 131.525 138.824ZM189.627 187.069C198.228 185.77 206.426 184.158 214.758 181.963C214.31 176.811 214.4 171.704 213.504 166.822C205.172 168.524 197.108 170.137 188.955 171.794C189.134 176.856 189.358 181.873 189.627 187.069ZM158.225 122.16C158.538 127.58 158.852 132.911 159.344 138.376C167.677 137.749 175.695 137.122 183.804 135.733C182.908 130.268 182.012 125.072 181.116 119.83C173.5 120.637 166.064 121.354 158.225 122.16ZM187.298 153.069C195.406 151.815 203.335 150.381 211.085 148.186C210.144 142.721 209.248 137.57 207.86 132.463C200.199 133.986 192.808 135.509 185.237 137.032C185.909 142.318 186.581 147.604 187.298 153.069ZM101.646 189.802C92.9551 188.324 84.4885 186.89 75.7979 185.457C75.7979 190.295 75.7979 195.088 75.7979 199.836C80.8151 201.583 99.2715 204.45 101.646 203.913C101.646 199.254 101.646 194.55 101.646 189.802ZM132.018 221.607C141.336 221.607 150.43 221.876 159.434 221.115C159.972 218.113 159.972 208.975 159.524 207.631C150.34 207.765 141.202 207.855 132.063 207.989C132.018 212.514 132.018 216.904 132.018 221.607ZM103.527 219.547C112.711 220.622 121.625 221.294 130.54 221.562C130.54 216.859 130.54 212.424 130.54 208.034C121.312 207.362 112.218 206.69 102.945 206.018C103.169 210.543 103.348 214.888 103.527 219.547ZM107.559 120.726C100.123 119.472 92.9999 118.263 85.698 117.053C84.4885 122.249 83.3238 127.446 82.0694 132.821C89.9537 134.568 97.5692 135.912 105.454 136.719C106.17 131.254 106.842 126.012 107.559 120.726ZM189.762 188.503C189.762 193.296 189.762 198.089 189.762 203.062C198.228 201.763 206.516 200.15 214.669 197.955C214.669 193.027 214.669 188.279 214.669 183.441C206.247 185.188 198.049 186.845 189.762 188.503ZM161.092 207.586C161.092 212.066 161.092 216.545 161.092 221.159C170.006 220.532 178.786 219.771 187.656 218.292C187.88 213.678 188.149 209.244 188.373 204.764C179.19 205.705 170.275 206.645 161.092 207.586ZM75.6187 167.225C76.2906 161.58 76.9178 156.384 77.5449 151.277C70.1086 149.172 62.9411 147.201 55.6392 145.14C54.6088 150.247 53.5337 155.399 53.1753 160.909C60.6116 163.014 67.9136 165.075 75.6187 167.225ZM185.058 135.688C192.718 134.389 200.199 133.09 207.68 131.03C206.292 125.744 204.903 120.547 203.559 115.396C196.392 116.829 189.403 118.263 182.37 119.696C183.266 124.982 184.117 130.178 185.058 135.688ZM134.034 105.137C133.81 110.602 133.586 115.844 133.362 121.309C141.381 121.398 149.086 121.488 156.881 120.861C156.433 115.485 155.985 110.244 155.537 105.137C148.28 105.137 141.291 105.137 134.034 105.137ZM55.7735 143.707C63.1651 146.171 70.3326 148.321 77.7689 149.799C78.7097 144.379 79.6504 139.182 80.5463 133.986C73.6028 132.015 66.7488 130.134 59.6261 128.118C58.3718 133.225 57.1175 138.331 55.7735 143.707ZM74.5435 183.665C74.8571 178.424 75.2155 173.407 75.5291 168.434C67.9136 166.329 60.4772 164.223 52.7273 162.073C52.3242 167.18 51.8762 172.108 51.473 177.17C59.1333 179.857 66.704 181.963 74.5435 183.665ZM111.591 103.749C110.74 109.035 109.888 114.141 108.992 119.427C116.742 120.458 124.268 120.906 132.108 121.174C132.332 115.799 132.556 110.558 132.78 105.272C125.657 104.779 118.758 104.286 111.591 103.749ZM156.791 104.958C157.239 110.334 157.687 115.575 158.135 120.861C165.84 120.278 173.276 119.651 180.892 118.397C179.817 113.021 178.742 107.915 177.711 102.763C170.633 103.525 163.869 104.241 156.791 104.958ZM76.7386 214.977C86.146 217.352 100.212 219.502 102.273 218.964C102.094 214.529 101.915 210.095 101.78 205.794C92.9999 204.316 84.5333 202.927 75.8427 201.449C76.1114 206.108 76.425 210.543 76.7386 214.977ZM212.608 149.351C213.325 154.592 214.042 159.699 214.803 164.94C222.284 162.969 229.362 160.774 236.306 157.862C235.365 152.621 234.424 147.604 233.528 142.542C226.45 144.872 219.597 147.067 212.608 149.351ZM209.204 132.105C210.279 137.391 211.309 142.587 212.384 147.918C219.552 145.991 226.406 143.886 233.08 141.109C231.826 135.778 230.617 130.671 228.914 125.744C222.284 127.894 215.834 129.954 209.204 132.105ZM214.893 166.418C215.251 171.391 215.61 176.408 215.968 181.604C223.494 179.589 230.661 177.394 237.695 174.482C237.56 169.285 237.023 164.358 236.351 159.475C229.093 161.849 222.06 164.089 214.893 166.418ZM80.8151 132.597C82.0694 127.132 83.279 121.981 84.4885 116.784C77.9929 114.993 71.6317 113.201 65.0018 111.364C63.3443 116.471 61.6868 121.488 59.9845 126.729C66.928 129.193 73.7372 130.94 80.8151 132.597ZM51.5178 193.251C59.1781 195.805 66.704 198.134 74.4987 199.657C74.4987 194.595 74.4987 189.802 74.4987 185.143C66.7488 182.993 59.2229 180.888 51.5178 178.737C51.5178 183.62 51.5178 188.369 51.5178 193.251ZM90.5809 100.255C88.9682 105.496 87.3555 110.468 86.2356 115.754C93.5375 117.277 100.571 118.576 107.828 119.293C108.724 113.873 109.575 108.766 110.426 103.614C103.796 102.494 97.2557 101.374 90.5809 100.255ZM159.568 222.593C150.206 222.727 141.157 222.862 131.973 222.996C132.108 227.162 132.197 231.149 132.287 235.27C141.336 235.494 150.071 235.449 159.031 234.777C159.255 230.746 159.389 226.759 159.568 222.593ZM188.911 218.113C197.377 216.814 205.485 215.246 213.415 213.096C214.221 209.557 214.714 201.046 214.31 199.523C206.157 201.18 198.004 202.838 189.627 204.54C189.403 208.885 189.179 213.32 188.911 218.113ZM202.842 114.231C202.484 111.23 198.855 100.479 197.736 98.7315C191.419 99.9858 185.103 101.285 178.786 102.539C179.951 107.87 181.026 112.977 182.191 118.397C189.179 117.008 195.944 115.664 202.842 114.231ZM130.719 222.951C121.67 222.324 112.8 221.652 103.617 221.025C103.975 225.191 104.334 229.223 104.692 233.299C113.562 234.329 122.208 235.046 131.077 235.181C130.988 230.97 130.853 226.983 130.719 222.951ZM223.091 109.079C216.819 111.095 210.816 113.066 204.724 115.037C206.068 120.234 207.456 125.43 208.845 130.626C214.31 129.506 225.465 125.788 228.422 124.131C226.988 119.069 225.062 114.097 223.091 109.079ZM160.285 234.777C169.065 234.329 177.622 233.433 186.043 232.134C186.895 228.148 187.522 221.383 187.208 219.815C178.428 220.711 169.693 221.607 160.823 222.548C160.644 226.624 160.464 230.522 160.285 234.777ZM216.102 183.083C216.102 187.831 216.102 192.624 216.102 197.641C223.539 195.626 230.661 193.431 237.56 190.608C238.232 187.159 238.187 178.11 237.515 176.184C230.482 178.469 223.404 180.753 216.102 183.083ZM36.0628 136.943C34.8533 142.005 33.6886 146.977 33.0166 152.128C39.109 155.309 45.2462 157.952 51.697 160.147C52.593 154.861 53.4441 149.754 54.2952 144.737C48.2924 142.139 42.3344 139.586 36.0628 136.943ZM89.3266 99.9858C83.3686 98.3284 77.6793 96.7157 71.6765 95.0582C69.6607 99.8962 67.6448 104.824 65.5393 110.02C71.9901 112.26 78.3513 114.007 84.8917 115.44C86.37 110.199 87.8035 105.182 89.3266 99.9858ZM36.5108 135.464C42.4688 138.6 48.4268 141.064 54.6088 143.259C55.9079 137.883 57.2071 132.732 58.4166 127.715C52.593 125.206 46.9485 122.787 41.1249 120.323C39.4226 125.206 37.7651 130.178 36.5108 135.464ZM51.5178 194.774C51.9658 199.478 52.4138 203.868 52.8169 208.437C60.2981 211.035 67.7792 213.051 75.4843 214.753C75.1707 210.005 74.8571 205.57 74.5883 201.18C66.928 199.075 59.3573 196.969 51.5178 194.774ZM134.84 88.6972C134.751 93.8487 134.079 98.8211 134.258 103.973C141.381 104.062 148.28 104.107 155.402 103.704C154.865 98.4179 154.372 93.4008 153.834 88.3388C147.473 88.4284 141.336 88.5628 134.84 88.6972ZM111.86 102.36C118.982 103.166 125.836 103.793 132.869 103.883C133.138 98.5971 133.362 93.58 133.631 88.4732C130.316 88.2492 127.314 88.1148 124.268 87.8909C121.222 87.6669 118.221 87.3981 115.13 87.1293C114.951 87.4877 114.816 87.7565 114.727 88.0252C113.831 92.7288 112.89 97.3876 111.86 102.36ZM103.438 233.165C103.079 228.954 102.721 224.922 102.363 220.756C98.1068 220.129 93.9407 219.502 89.7297 218.875C85.5188 218.248 81.3527 217.217 76.873 216.59C77.5449 220.98 78.1721 224.967 78.7545 229.043C86.9971 230.79 95.0158 232.134 103.438 233.165ZM177.353 101.419C176.054 96.3125 174.799 91.385 173.545 86.3678C167.273 87.0397 161.271 87.6669 155.133 88.294C155.671 93.4456 156.164 98.3731 156.701 103.569C163.645 103.211 170.365 102.494 177.353 101.419ZM51.5626 161.491C48.2924 160.192 45.1566 159.027 42.1104 157.683C39.0194 156.384 35.9732 154.906 32.7926 153.472C32.1207 158.714 31.3143 163.596 31.3591 168.569C37.5411 171.794 43.7231 174.437 50.3083 176.722C50.7115 171.57 51.1147 166.642 51.5626 161.491ZM216.058 92.9528C210.234 94.8343 204.813 96.5813 199.303 98.3732C200.961 103.435 202.618 108.497 204.321 113.693C210.503 112.081 216.595 110.244 222.643 107.691C220.403 102.629 218.253 97.8356 216.058 92.9528ZM58.8645 126.326C60.5668 121.085 62.2691 115.978 63.8818 110.916C58.4166 108.587 53.1305 106.347 47.7997 104.017C45.5598 108.9 43.4543 113.783 41.7073 118.89C47.2621 121.891 52.9513 124.221 58.8645 126.326ZM187.477 231.955C189.672 231.597 191.554 231.373 193.345 230.97C198.855 229.805 204.41 228.595 209.92 227.431C210.727 227.252 211.309 227.028 211.488 226.087C212.115 222.279 212.787 218.516 213.459 214.619C205.082 216.321 197.019 217.934 188.821 219.591C188.373 223.578 187.97 227.61 187.477 231.955ZM96.1357 84.0832C94.4334 89.0108 92.7311 93.8039 90.9393 98.8659C97.614 100.389 104.02 101.464 110.65 102.181C111.68 97.0293 112.666 92.0569 113.696 87.0397C107.783 86.0542 102.183 85.1135 96.1357 84.0832ZM251.044 132.284C249.521 127.132 248.087 122.115 246.072 117.412C240.651 120.099 235.41 122.697 230.213 125.251C231.602 130.402 232.946 135.464 234.38 140.661C240.248 138.242 245.758 135.599 251.044 132.284ZM237.695 192.176C230.303 194.55 223.135 196.88 215.968 199.164C215.654 203.644 215.296 208.034 214.982 212.782C222.329 210.767 229.407 208.616 236.306 205.749C237.023 201.18 237.515 196.701 237.695 192.176ZM251.582 133.762C245.713 136.674 240.203 139.362 234.693 142.094C235.634 147.111 236.53 152.128 237.515 157.414C243.608 154.951 249.297 152.218 254.897 148.724C253.732 143.707 252.657 138.779 251.582 133.762ZM197.691 97.522C195.585 92.3257 193.704 87.5773 191.778 82.7393C186.043 83.904 180.489 85.0239 174.799 86.1886C176.099 91.3402 177.353 96.2677 178.652 101.464C184.968 100.165 191.15 98.8659 197.691 97.522ZM158.986 236.345C149.937 236.48 141.246 236.614 132.421 236.748C132.511 240.332 132.421 243.871 132.869 247.544C141.426 247.589 149.713 247.813 158.225 247.051C158.448 243.468 158.717 240.018 158.986 236.345ZM50.0843 192.669C50.0843 187.697 50.0843 182.948 50.0843 178.245C43.8127 175.557 37.5411 172.869 31.0904 170.137C30.9112 175.019 30.7768 179.768 31.2695 184.561C37.3172 187.741 43.4991 190.429 50.0843 192.669ZM131.077 236.659C122.297 236.032 113.741 235.404 105.006 234.777C105.409 238.54 105.812 242.124 106.663 245.618C114.995 246.604 123.148 247.186 131.525 247.455C131.346 243.737 131.212 240.287 131.077 236.659ZM224.345 108.587C226.137 113.649 227.974 118.666 229.81 123.817C235.365 121.533 240.651 119.069 245.668 115.888C243.563 110.782 241.637 105.854 239.173 101.285C234.111 103.793 229.317 106.168 224.345 108.587ZM255.121 150.381C249.073 153.338 243.384 156.16 237.65 158.938C238.098 163.82 238.59 168.793 239.083 173.899C245.22 171.48 250.999 168.658 256.689 165.119C256.151 160.237 255.658 155.399 255.121 150.381ZM48.2924 102.674C53.7129 105.541 58.9541 107.736 64.3746 109.572C66.4801 104.421 68.4959 99.493 70.467 94.6103C65.5393 92.5049 60.7908 90.4442 55.7735 88.3388C53.3097 93.0424 50.8459 97.746 48.2924 102.674ZM159.389 247.096C167.766 246.559 175.83 245.797 184.028 244.453C184.61 240.825 185.64 237.376 185.82 233.613C177.129 234.509 168.707 235.36 160.24 236.211C159.972 239.795 159.703 243.289 159.389 247.096ZM94.9262 83.8144C89.5954 82.3361 84.5781 80.9027 79.4264 79.4692C76.9178 84.1728 74.4987 88.7868 72.3485 93.7591C78.1721 95.775 83.8613 97.3876 89.7297 98.5971C91.5216 93.6248 93.1791 88.7868 94.9262 83.8144ZM75.6635 216.321C68.0928 214.216 60.746 212.155 53.3097 210.095C53.3097 210.677 53.2201 211.215 53.3097 211.707C53.9817 214.843 54.6984 217.979 55.3256 221.115C55.5496 222.19 56.0423 222.772 57.1175 223.086C60.7012 224.116 64.2402 225.325 67.824 226.311C70.9598 227.207 74.0956 227.924 77.5001 228.775C76.8282 224.385 76.2458 220.353 75.6635 216.321ZM198.855 97.0741C204.545 95.5958 209.965 93.8935 215.475 91.6537C212.832 86.8158 210.279 82.2018 207.77 77.6325C202.663 79.29 197.825 80.8579 192.987 82.4257C194.958 87.3981 196.884 92.1913 198.855 97.0741ZM239.083 189.981C244.772 187.697 249.969 185.098 255.031 182.276C256.33 181.56 256.778 180.619 256.778 179.23C256.733 175.557 256.778 171.928 256.778 168.255C256.778 167.852 256.644 167.449 256.554 167.001C250.641 169.913 244.862 172.735 239.083 175.557C239.083 180.305 239.083 184.964 239.083 189.981ZM217.177 92.5049C219.373 97.3876 221.568 102.315 223.807 107.288C229.004 105.137 233.887 102.898 238.456 99.941C235.903 94.9686 233.439 90.2651 230.527 85.875C226.002 88.1148 221.612 90.3098 217.177 92.5049ZM81.7559 241.407C91.1633 243.692 102.945 245.484 105.14 245.036C104.647 241.586 104.154 238.137 103.617 234.509C99.5403 233.926 95.5086 233.344 91.4768 232.717C87.4003 232.09 83.4134 231.104 79.0232 230.522C80.0088 234.374 80.8599 237.868 81.7559 241.407ZM134.975 87.2637C141.291 87.3533 147.428 87.5325 153.745 86.8605C153.162 81.933 152.625 77.319 152.042 72.705C146.577 72.705 141.246 72.705 135.781 72.705C135.512 77.6325 135.244 82.2913 134.975 87.2637ZM118.758 71.5403C117.37 76.1991 116.294 80.9027 115.309 85.8302C121.58 86.5918 127.583 87.0845 133.72 87.1741C134.034 82.157 134.303 77.4534 134.572 72.705C129.241 72.3018 124.089 71.9434 118.758 71.5403ZM173.232 85.1583C171.708 80.1411 170.32 75.4823 168.931 70.8235C163.555 71.3611 158.493 71.8986 153.252 72.4362C153.834 77.319 154.417 82.0674 154.999 87.0845C161.181 86.4126 167.094 85.7854 173.232 85.1583ZM236.037 207.452C228.69 209.826 221.702 212.066 214.714 214.306C214.042 218.337 213.415 222.369 212.743 226.58C213.683 226.4 214.49 226.266 215.206 226.042C220.627 224.25 226.047 222.414 231.513 220.711C232.901 220.263 233.573 219.502 233.797 218.068C234.111 216.187 234.648 214.306 235.052 212.424C235.41 210.811 235.679 209.244 236.037 207.452ZM50.2635 194.326C43.8575 191.594 37.6755 188.996 31.3591 186.308C31.3591 186.801 31.3143 187.249 31.3591 187.697C31.7623 191.012 32.2551 194.326 32.4791 197.641C32.6135 199.388 33.375 200.284 34.8981 200.911C39.9602 203.062 44.9774 205.257 50.0395 207.452C50.3979 207.631 50.8459 207.631 51.4282 207.765C51.0699 203.151 50.6667 198.761 50.2635 194.326ZM26.9242 111.095C24.9084 115.844 23.1165 120.682 21.683 125.744C25.8939 129.282 30.3736 132.194 35.2117 134.748C36.8244 129.596 38.3475 124.579 39.9154 119.651C35.5701 116.784 31.3143 113.962 26.9242 111.095ZM207.636 239.929C209.204 236.211 210.637 230.701 210.592 228.685C202.842 230.253 195.048 231.821 187.253 233.389C186.626 236.972 185.999 240.511 185.282 244.453C192.987 242.93 200.334 241.452 207.636 239.929ZM21.0558 127.222C19.9807 131.836 18.9503 136.36 17.8752 140.929C17.6512 141.915 18.0992 142.497 18.816 142.99C21.235 144.692 23.6092 146.529 26.1179 148.142C27.865 149.306 29.7464 150.292 31.7175 151.412C32.8374 146.081 33.8678 141.109 34.8981 136.271C30.2392 133.225 25.7595 130.313 21.0558 127.222ZM114.01 85.6958C115.174 80.7683 116.294 76.1095 117.414 71.4059C112.307 70.5548 107.514 69.7484 102.497 68.8973C100.571 73.5113 98.6444 78.0805 96.6733 82.7841C102.497 84.128 108.141 85.0239 114.01 85.6958ZM65.3153 73.5113C62.2243 77.9909 59.3125 82.4257 56.5799 87.1741C61.4628 89.5931 66.1217 91.7433 71.0494 93.2664C73.4684 88.3836 75.7979 83.7696 78.1273 79.066C73.9612 77.2294 69.7502 75.3927 65.3153 73.5113ZM40.4529 118.263C42.5584 113.201 44.5743 108.273 46.5901 103.435C42.5136 100.747 38.5715 98.1492 34.5397 95.4614C31.9415 100.031 29.6568 104.734 27.5514 109.662C31.5831 113.066 35.8388 115.799 40.4529 118.263ZM191.106 81.4402C188.911 76.6022 186.895 72.033 184.431 67.6878C179.548 68.6733 174.934 69.6588 170.141 70.5996C171.574 75.3031 172.963 79.9619 174.396 84.7551C180.085 84.0384 185.506 82.8737 191.106 81.4402ZM17.5168 143.841C17.4272 144.065 17.2928 144.334 17.2481 144.648C16.7105 148.858 16.2625 153.069 15.6802 157.235C15.5458 158.355 16.2177 158.893 16.9793 159.385C20.7422 161.894 24.5052 164.403 28.2681 166.911C28.7161 167.225 29.2537 167.404 29.8808 167.673C30.4184 162.566 30.956 157.638 31.4487 152.935C26.7898 149.889 22.2205 146.932 17.5168 143.841ZM208.89 77.1398C211.443 81.7986 213.952 86.4126 216.55 91.161C221.209 89.4139 225.555 87.2189 229.81 84.5759C226.898 79.8276 223.852 75.4823 220.627 71.2715C216.685 73.2873 212.832 75.1688 208.89 77.1398ZM239.038 191.594C238.59 195.984 238.187 200.464 237.739 205.167C243.518 202.838 248.849 200.195 254.001 197.193C254.717 196.79 254.986 196.163 255.076 195.402C255.3 193.565 255.658 191.728 255.882 189.892C256.151 187.697 256.285 185.457 256.509 183.127C250.596 185.95 244.952 188.727 239.038 191.594ZM133.317 257.982C141.381 258.43 149.175 258.071 157.015 257.668C157.373 254.532 157.687 251.621 158.045 248.53C149.534 248.664 141.291 248.799 132.825 248.933C132.959 252.024 133.138 254.891 133.317 257.982ZM54.7432 87.6221C52.8617 86.4574 51.0251 85.3823 49.2332 84.1728C47.3965 82.9633 45.6494 81.6642 43.6783 80.2755C40.7665 84.9343 37.9443 89.4139 35.2117 93.8039C37.7651 96.4021 43.8575 100.479 47.2621 101.912C49.7259 97.2085 52.2346 92.5049 54.7432 87.6221ZM88.1171 64.9104C85.3396 69.2557 82.607 73.6009 80.0984 78.4389C85.3396 79.9172 90.3121 81.3058 95.3742 82.6945C97.39 77.8565 99.3163 73.3321 101.243 68.6285C96.8077 67.3294 92.552 66.1647 88.1171 64.9104ZM252.209 131.522C256.375 129.059 260.093 126.147 263.542 122.832C264.214 122.16 263.99 121.533 263.722 120.816C262.243 116.919 260.81 113.021 259.332 109.124C259.152 108.676 258.839 108.273 258.615 107.87C254.762 110.826 251.044 113.693 247.281 116.605C248.939 121.578 250.551 126.46 252.209 131.522ZM240.338 100.568C242.488 105.451 244.593 110.244 246.788 115.216C250.91 112.618 254.673 109.751 258.122 106.347C255.927 101.509 253.598 96.7605 250.954 92.3257C247.371 95.103 243.921 97.7908 240.338 100.568ZM108.769 256.279C116.653 257.131 124.224 257.892 132.108 257.937C131.884 254.712 131.705 251.8 131.525 248.709C128.614 248.575 125.836 248.53 123.104 248.351C120.416 248.171 117.773 247.858 115.085 247.723C112.397 247.589 109.709 246.962 106.753 247.096C107.425 250.277 108.097 253.189 108.769 256.279ZM80.4119 241.273C79.4264 237.241 78.5753 233.657 77.7241 230.253C70.467 228.237 63.3891 226.311 55.9527 224.25C57.1175 227.7 58.1926 230.835 59.2229 234.016C59.5813 235.136 60.2981 235.673 61.3732 235.987C64.509 236.928 67.6 237.958 70.7358 238.809C73.8268 239.615 76.9178 240.377 80.4119 241.273ZM255.972 148.097C260.093 145.499 263.587 142.811 266.947 139.765C268.067 138.779 268.246 137.749 267.933 136.405C266.947 132.642 266.051 128.924 265.066 125.161C264.931 124.713 264.707 124.265 264.618 123.952C260.586 127.043 256.644 130.089 252.702 133.09C253.732 137.928 254.807 142.856 255.972 148.097ZM185.82 67.3294C188.059 72.033 190.21 76.5126 192.405 81.0818C197.332 79.7828 202.126 78.3941 206.919 76.3335C204.007 71.7195 201.274 67.2846 198.184 63.2978C193.973 64.6865 189.941 65.9855 185.82 67.3294ZM183.49 246.021C175.337 246.872 167.408 247.679 159.255 248.485C158.941 251.486 158.628 254.443 158.269 257.623C166.154 257.131 173.635 256.459 181.071 255.204C182.101 252.024 183.042 249.112 183.49 246.021ZM51.7866 209.557C45.4702 206.869 39.4226 204.316 33.0166 201.628C34.047 205.66 34.9877 209.423 35.9732 213.23C36.1972 214.126 36.8244 214.53 37.5859 214.888C40.4081 216.232 43.1856 217.665 46.0526 218.875C48.606 219.995 51.2938 220.891 54.1609 221.966C53.3097 217.665 52.5482 213.499 51.7866 209.557ZM231.781 85.1583C234.424 89.8171 237.023 94.4759 239.666 99.2243C243.608 96.8053 247.102 94.1623 250.193 90.937C247.326 86.2782 244.593 81.7538 241.368 77.6773C238.143 80.1859 235.052 82.6049 231.781 85.1583ZM15.6354 160.237C15.6354 164.806 15.6354 169.151 15.6354 173.541C15.6354 174.437 16.3073 174.795 16.8449 175.288C20.6078 178.334 24.6844 180.932 28.8953 183.307C29.1193 183.441 29.4329 183.486 29.836 183.575C29.836 178.737 29.836 173.989 29.836 169.42C25.0875 166.374 20.5182 163.417 15.6354 160.237ZM268.605 140.258C264.349 143.483 260.272 146.574 256.196 149.71C256.733 154.503 257.316 159.341 257.898 164.447C262.288 161.715 266.275 158.714 269.769 155.175C270.128 154.816 270.262 154.1 270.217 153.562C270.128 151.636 269.948 149.71 269.68 147.783C269.411 145.23 269.008 142.766 268.605 140.258ZM232.946 221.652C225.823 223.937 219.104 226.087 212.339 228.282C211.399 231.776 210.458 235.404 209.428 239.257C215.923 237.555 222.016 235.584 227.974 233.254C228.78 232.941 229.093 232.358 229.362 231.642C230.527 228.461 231.692 225.236 232.946 221.652ZM64.1506 72.8842C60.97 70.7787 57.8342 68.6733 54.564 66.4783C51.1147 70.5548 47.7101 74.7208 44.6191 79.29C48.0684 82.157 51.6074 84.4864 55.46 86.4574C58.4166 81.7986 61.2836 77.3638 64.1506 72.8842ZM82.2486 243.065C83.279 245.842 84.2197 248.261 85.0261 250.725C85.474 251.979 86.1908 252.651 87.5347 252.83C92.7311 253.681 97.9276 254.667 103.124 255.518C104.513 255.742 105.901 255.832 107.425 256.011C106.708 252.741 106.036 249.739 105.409 246.872C97.7036 245.618 90.1777 244.364 82.2486 243.065ZM75.977 59.7589C72.6173 63.7457 69.3023 67.9118 66.1665 72.3914C70.4222 74.5416 74.4987 76.3783 78.8441 77.7669C81.5319 73.2873 84.1749 68.8973 86.8627 64.4625C83.2342 62.8946 79.6952 61.3715 75.977 59.7589ZM149.982 57.967C145.457 57.967 141.202 57.967 136.901 57.967C136.498 62.4915 136.095 66.8367 136.005 71.2715C141.381 71.2715 146.488 71.2715 151.863 71.2715C151.191 66.6127 150.609 62.3123 149.982 57.967ZM118.982 70.1964C124.313 70.7339 129.42 71.3611 134.661 71.2267C134.975 66.6575 135.288 62.3571 135.602 57.9223C131.167 57.6087 127.001 57.2951 122.7 56.9815C121.491 61.4163 120.281 65.672 118.982 70.1964ZM153.073 71.0923C158.314 70.6891 163.287 70.3756 168.483 69.3901C166.87 64.9104 165.392 60.6548 163.869 56.3544C159.568 56.8024 155.447 57.2055 151.191 57.6535C151.819 62.1779 152.446 66.5231 153.073 71.0923ZM207.456 241.273C199.751 242.841 192.405 244.274 185.013 245.752C184.207 248.754 183.445 251.755 182.505 255.249C189.403 253.771 195.854 252.427 202.305 250.994C202.887 250.859 203.604 250.366 203.828 249.874C205.037 247.141 206.157 244.319 207.456 241.273ZM199.483 62.7602C202.439 67.1951 205.261 71.5403 208.263 76.0199C212.205 74.0489 215.968 72.2122 220.044 70.1516C216.371 65.8064 212.922 61.7299 209.517 57.7431C206.068 59.5349 202.887 61.1028 199.483 62.7602ZM254.18 198.806C253.822 198.851 253.598 198.851 253.418 198.94C248.401 201.359 243.384 203.823 238.366 206.242C237.605 206.601 237.336 207.093 237.157 207.9C236.53 211.259 235.768 214.574 235.052 217.934C234.962 218.292 235.052 218.696 235.052 219.278C240.427 217.038 245.444 214.664 250.238 211.707C250.775 211.394 251.313 210.811 251.492 210.274C252.478 206.825 253.329 203.375 254.18 199.926C254.269 199.568 254.18 199.209 254.18 198.806ZM230.348 63.8801C227.257 66.2991 224.524 68.4045 221.792 70.5548C224.838 74.9896 227.884 79.3796 230.975 83.8592C234.469 81.7538 237.605 79.3796 240.606 76.2887C237.157 72.1226 233.752 68.0014 230.348 63.8801ZM121.491 56.8024C117.325 56.0856 113.472 55.4585 109.44 54.7865C107.335 58.9974 105.274 63.1634 103.034 67.643C108.186 68.6285 112.89 69.6588 117.818 69.9724C119.072 65.4928 120.237 61.282 121.491 56.8024ZM165.078 56.1752C166.691 60.6996 168.214 65.0448 169.737 69.3005C174.575 68.5389 179.145 67.6878 183.848 66.3887C181.385 61.9091 179.145 57.6983 176.591 53.801C172.694 54.6073 168.976 55.3689 165.078 56.1752ZM270.352 156.877C266.32 159.833 262.467 162.656 258.615 165.388C257.764 166.015 257.898 166.732 257.898 167.538C257.943 171.256 257.943 174.975 257.943 178.693C257.943 179.141 257.988 179.633 258.032 180.35C261.706 178.065 264.842 175.602 267.933 173.003C269.724 171.525 270.665 169.913 270.62 167.494C270.531 163.999 270.8 160.416 270.352 156.877ZM26.4763 108.631C28.8953 103.749 31.1799 99.0451 33.4646 94.4759C30.8664 91.6089 28.3577 88.8316 25.8043 85.9646C23.0717 90.3546 20.563 94.8343 18.4576 99.4035C20.6974 102.987 23.2957 105.988 26.4763 108.631ZM15.9489 176.587C15.9041 176.722 15.8145 176.901 15.8593 177.125C16.3521 180.798 16.8897 184.471 17.2928 188.145C17.4272 189.399 18.0096 190.205 18.9503 190.877C22.7133 193.386 26.4763 195.939 30.2392 198.448C30.508 198.627 30.8664 198.672 31.3143 198.806C30.8664 194.416 30.4632 190.205 29.9704 185.994C29.9256 185.636 29.612 185.143 29.2985 184.964C24.8636 182.142 20.4286 179.365 15.9489 176.587ZM88.789 63.6562C93.3583 65.224 97.5244 66.4335 101.87 67.2846C104.02 62.9394 106.081 58.7286 108.186 54.4729C104.558 53.4426 101.108 52.5019 97.5692 51.4716C94.7022 55.5033 91.8352 59.4453 88.789 63.6562ZM25.8491 110.155C23.1613 107.153 20.4734 104.197 17.696 101.061C15.4562 105.496 13.7539 110.155 12.1412 114.858C14.3362 118.621 17.2033 121.712 20.563 124.668C22.3997 119.651 24.1468 114.858 25.8491 110.155ZM66.7488 53.7114C62.8515 57.3399 59.1781 61.2372 55.6392 65.3136C58.103 67.6878 62.9411 70.8235 65.1809 71.4955C68.4063 67.3742 71.6317 63.2082 74.8123 59.0869C72.0797 57.2951 69.4815 55.5481 66.7488 53.7114ZM35.8388 71.8091C32.5687 75.8407 29.5225 80.0963 26.745 84.5759C28.8505 87.9357 31.3143 90.713 34.2262 93.132C37.1828 88.4732 40.005 83.9936 42.7824 79.6036C40.4529 77.0502 38.2131 74.452 35.8388 71.8091ZM156.791 259.236C148.817 259.236 141.246 259.236 133.407 259.236C133.631 261.879 133.855 264.253 134.079 266.583C138.559 267.075 152.401 266.807 155.716 266.135C156.029 263.85 156.388 261.565 156.791 259.236ZM185.148 66.0303C189.314 65.0448 193.345 63.7905 197.512 61.9987C194.241 57.8775 191.15 53.9802 188.059 50.1277C184.565 51.2924 181.34 52.3227 178.025 53.4426C180.399 57.6983 182.729 61.8195 185.148 66.0303ZM36.9588 216.142C38.0787 219.995 39.3778 223.399 40.9905 226.624C41.3041 227.207 41.9312 227.789 42.5584 228.103C47.2173 230.208 51.921 232.224 56.6247 234.24C57.0279 234.419 57.5206 234.419 58.0134 234.553C56.9831 231.283 55.9527 228.148 55.1016 225.012C54.788 223.937 54.2952 223.399 53.3097 222.996C50.9355 222.1 48.606 221.159 46.2766 220.219C43.2752 218.92 40.3186 217.576 36.9588 216.142ZM84.1749 252.069C82.9654 248.619 81.8903 245.618 80.8151 242.617C77.5001 241.766 74.1404 240.914 70.8702 240.019C67.5552 239.123 64.2402 238.092 60.9252 237.152C60.8356 237.286 60.7012 237.42 60.6116 237.555C61.9108 240.153 63.2099 242.706 64.4194 245.304C64.9122 246.335 65.6737 246.872 66.7488 247.186C70.7358 248.351 74.7227 249.56 78.7545 250.68C80.4567 251.218 82.159 251.576 84.1749 252.069ZM16.4865 140.974C17.7408 135.957 18.9503 131.074 20.1151 126.281C18.592 124.758 17.1137 123.28 15.7249 121.757C14.3362 120.189 13.0371 118.531 11.3796 116.516C10.1701 121.309 9.05018 125.609 8.06465 129.954C7.93026 130.582 8.19904 131.433 8.55742 132.015C10.7077 135.285 13.3507 138.197 16.4865 140.974ZM132.914 266.717C132.287 263.984 132.69 261.565 132.063 259.37C124.268 258.788 116.787 258.251 109.127 257.713C109.978 260.266 110.74 262.596 111.501 265.015C118.534 266 125.478 266.359 132.914 266.717ZM217.805 51.4716C215.206 53.5322 212.922 55.3241 210.637 57.1159C214.086 61.2372 217.491 65.2688 220.94 69.4349C223.897 67.5534 226.764 65.5824 229.317 62.7602C225.465 58.9526 221.657 55.2345 217.805 51.4716ZM36.7796 70.5548C38.6611 73.5561 40.9905 76.0199 43.5887 78.3493C46.9933 74.0041 50.3083 69.7484 53.5785 65.5824C51.5626 63.2978 49.5915 61.058 47.4861 58.7286C43.6783 62.4467 40.1394 66.3887 36.7796 70.5548ZM180.713 256.683C172.784 257.489 165.437 258.251 158.09 259.012C157.732 261.431 157.373 263.76 156.97 266.269C157.597 266.269 157.956 266.314 158.314 266.269C161.808 265.955 165.258 265.687 168.752 265.328C171.26 265.06 173.769 264.701 176.278 264.343C176.86 264.253 177.711 263.94 177.935 263.492C178.876 261.341 179.727 259.146 180.713 256.683ZM96.3597 51.0237C93.3135 49.7246 90.5361 48.5151 87.5795 47.2608C84.0405 51.0237 80.5015 54.6969 76.8282 58.5942C80.5015 60.4756 83.9957 62.0435 87.6243 63.2082C90.5809 59.1317 93.4031 55.1449 96.3597 51.0237ZM251.985 91.2954C254.314 95.8198 256.689 100.434 259.152 105.182C261.527 102.808 263.274 100.165 264.842 97.3876C265.424 96.3573 265.469 95.5062 264.842 94.4759C263.005 91.2954 261.258 88.1148 259.466 84.9343C259.063 84.1728 258.525 83.5008 258.032 82.8289C255.972 85.7406 253.956 88.4732 251.985 91.2954ZM227.839 234.912C221.747 236.793 215.834 238.63 209.876 240.422C209.069 240.646 208.711 241.094 208.397 241.9C207.591 244.14 206.65 246.335 205.799 248.53C205.62 249.023 205.396 249.515 205.127 250.277C211.04 248.664 216.595 246.917 221.926 244.767C222.598 244.498 223.27 243.826 223.673 243.199C225.017 240.825 226.226 238.361 227.481 235.897C227.66 235.584 227.705 235.225 227.839 234.912ZM242.398 76.647C245.265 80.9923 248.177 85.3823 251.178 89.9067C253.374 87.6669 255.031 85.2479 256.465 82.6497C257.002 81.6642 257.002 80.9027 256.33 80.0067C253.687 76.5126 251.089 72.9737 248.446 69.4349C248.267 69.2109 247.998 69.0765 247.863 68.9421C246.027 71.4955 244.28 73.9593 242.398 76.647ZM270.396 172.735C269.769 173.093 269.545 173.183 269.366 173.317C265.827 176.005 262.288 178.737 258.704 181.38C258.032 181.873 257.764 182.366 257.674 183.172C257.45 186.039 257.092 188.951 256.778 191.818C256.644 192.983 256.465 194.147 256.285 195.312C256.599 195.312 256.778 195.312 256.868 195.267C260.72 192.848 264.304 190.071 267.529 186.89C268.022 186.398 268.381 185.636 268.47 184.964C269.187 181.022 269.769 177.035 270.396 172.735ZM198.676 61.5955C202.17 60.2069 205.396 58.7286 208.621 56.668C204.724 52.8603 201.006 49.2318 197.288 45.6481C194.51 47.0368 191.957 48.3359 189.269 49.6798C192.405 53.6666 195.496 57.5639 198.676 61.5955ZM265.245 120.995C267.888 118.307 269.859 115.396 271.472 112.215C271.92 111.319 271.74 110.513 271.382 109.662C269.948 106.168 268.515 102.629 267.081 99.1347C266.857 98.5971 266.499 98.1492 266.275 97.7908C264.08 100.792 261.975 103.749 259.78 106.75C261.527 111.364 263.363 116.112 265.245 120.995ZM16.2177 142.721C13.2611 139.496 10.3941 136.36 7.34789 133.001C6.85513 136.674 6.45195 140.168 5.86959 143.617C5.46642 146.036 5.95919 148.142 7.66147 149.978C8.96059 151.412 10.1701 152.935 11.4692 154.368C12.3652 155.309 13.3507 156.205 14.4258 157.235C15.053 152.128 15.6354 147.335 16.2177 142.721ZM230.661 232C233.842 231.014 242.577 226.759 245.176 224.922C245.534 224.653 245.892 224.385 246.116 224.026C247.863 220.622 249.297 217.038 250.462 213.41C245.265 215.829 240.203 218.248 235.096 220.622C234.38 220.935 234.2 221.473 233.976 222.145C232.901 225.325 231.826 228.551 230.661 232ZM107.828 257.534C100.66 256.369 93.7615 255.204 86.37 253.995C87.8035 256.593 89.013 258.833 90.2673 260.983C90.5361 261.386 91.208 261.7 91.7008 261.834C93.7167 262.282 95.7774 262.73 97.7932 263.089C101.78 263.76 105.812 264.343 110.157 265.015C109.306 262.282 108.589 259.908 107.828 257.534ZM18.1888 192.131C18.2336 192.445 18.1888 192.714 18.2784 192.983C19.2191 196.521 20.1599 200.016 21.1902 203.51C21.4142 204.226 22.0413 204.943 22.6685 205.391C26.0731 207.81 29.5225 210.095 33.0166 212.424C33.4198 212.693 33.8678 212.827 34.5845 213.141C34.4501 212.379 34.3605 211.976 34.2709 211.573C33.7334 209.244 32.927 206.959 32.6583 204.63C32.3447 201.673 30.9112 199.971 28.2681 198.582C24.8188 196.745 21.6382 194.371 18.1888 192.131ZM241.502 75.3927C243.384 73.4665 244.862 71.3611 246.161 69.0765C246.788 68.0014 246.744 67.195 245.892 66.2991C243.563 63.8801 241.323 61.3716 239.038 58.9526C238.098 57.967 237.067 57.0263 236.127 56.1304C234.424 58.5494 232.856 60.7892 231.244 63.029C234.559 67.0607 238.008 71.1819 241.502 75.3927ZM65.7185 52.8155C63.9266 50.7997 62.3139 48.963 60.6116 47.0368C56.3559 50.4413 52.3242 53.8458 48.6508 57.6535C50.3531 60.5652 52.369 62.8498 54.6536 64.3729C58.2822 60.5652 62.0003 56.7128 65.7185 52.8155ZM272.771 113.29C270.486 116.292 268.47 119.024 266.32 121.667C265.603 122.518 265.782 123.28 266.006 124.131C266.992 127.939 267.977 131.746 268.963 135.554C269.097 136.002 269.232 136.495 269.411 137.211C272.143 134.255 274.294 131.298 275.817 127.849C276.086 127.267 276.175 126.505 276.041 125.923C275.011 121.757 273.891 117.635 272.771 113.29ZM147.742 44.3938C145.95 44.3938 144.382 44.3938 142.859 44.3938C141.246 44.3938 139.634 44.4386 137.931 44.4386C137.573 48.5599 137.259 52.4571 136.946 56.444C141.291 56.444 145.323 56.444 149.713 56.444C149.041 52.2779 148.414 48.3807 147.742 44.3938ZM179.369 263.536C179.817 263.626 179.951 263.716 180.085 263.716C185.775 262.551 191.464 261.431 197.153 260.222C197.601 260.132 198.184 259.818 198.407 259.415C199.796 257.265 201.14 255.025 202.484 252.83C202.394 252.696 202.305 252.561 202.17 252.427C200.827 252.741 199.483 253.054 198.139 253.323C193.256 254.264 188.328 255.16 183.445 256.145C182.863 256.28 182.012 256.593 181.833 257.041C180.937 259.102 180.22 261.297 179.369 263.536ZM127.18 43.7667C125.747 47.7983 124.313 51.606 123.283 55.7272C127.538 56.0408 131.57 56.7128 135.781 56.3992C136.095 52.3227 136.408 48.4255 136.722 44.4386C133.452 44.2146 130.45 43.9907 127.18 43.7667ZM80.0536 42.3332C75.7531 45.6481 71.6765 48.963 67.6448 52.9051C70.4222 54.7417 73.0204 56.3992 75.6187 58.1014C79.3368 54.1594 82.8758 50.3965 86.4148 46.5888C84.2645 45.1554 82.2486 43.8115 80.0536 42.3332ZM158.448 43.2739C155.133 43.5875 152.132 43.9011 148.996 44.2146C149.668 48.3359 150.34 52.2779 151.012 56.3544C155.178 56.0408 159.21 55.8616 163.376 54.9657C161.674 50.9789 160.106 47.216 158.448 43.2739ZM125.881 43.5875C122.745 43.0499 119.833 42.5572 116.877 42.0644C114.637 45.9169 112.442 49.5902 110.068 53.6666C114.279 54.3834 117.997 55.0105 121.849 55.6376C123.238 51.5164 124.492 47.6639 125.881 43.5875ZM168.304 41.3029C165.258 41.93 162.525 42.5124 159.703 43.0947C161.36 47.0816 162.973 50.9341 164.63 54.9657C168.349 54.2042 172.022 53.4874 176.054 52.7259C173.321 48.6943 170.857 45.021 168.304 41.3029ZM198.363 44.9762C202.126 48.6943 205.889 52.3227 209.831 56.1752C212.115 54.3834 214.4 52.6363 216.819 50.7549C212.519 46.992 208.352 43.6323 203.962 40.5862C201.991 42.1092 200.199 43.5427 198.363 44.9762ZM235.052 54.8761C230.93 51.382 226.898 48.0223 222.822 44.6178C221.299 46.768 219.955 48.6495 218.611 50.5757C222.464 54.3386 226.271 58.0566 230.169 61.8643C232.229 59.9829 233.663 57.6535 235.052 54.8761ZM14.2018 172.959C14.2466 172.242 14.2914 171.794 14.2914 171.391C14.2914 167.762 14.2466 164.089 14.381 160.461C14.4258 159.161 13.8883 158.445 13.0819 157.594C10.8421 155.309 8.7366 152.89 6.58634 150.516C6.31756 150.202 6.04878 149.889 5.55601 149.306C5.46642 150.068 5.42162 150.471 5.42162 150.919C5.42162 153.92 5.51121 156.877 5.42162 159.878C5.33203 162.073 6.04878 163.91 7.39269 165.612C9.36376 168.21 11.514 170.629 14.2018 172.959ZM108.813 53.3978C111.143 49.411 113.338 45.6481 115.622 41.7957C112.89 40.9893 110.426 40.3174 107.873 39.5558C104.647 43.0499 101.601 46.544 98.4652 50.4861C102.139 51.5164 105.364 52.4123 108.813 53.3978ZM63.2547 245.842C62.8963 245.08 62.7171 244.677 62.4931 244.229C61.5524 242.303 60.522 240.377 59.7605 238.361C59.2229 236.883 58.327 236.121 56.9383 235.539C52.5034 233.792 48.158 231.866 43.7679 230.029C43.4095 229.895 43.0064 229.805 42.2 229.536C43.9919 232.627 45.515 235.36 47.1725 238.003C47.6653 238.764 48.4268 239.481 49.278 239.884C53.5337 241.855 57.8342 243.692 62.1347 245.528C62.3587 245.663 62.6275 245.708 63.2547 245.842ZM177.218 52.2779C180.578 51.382 183.759 50.5309 186.895 49.0974C183.58 45.2897 180.265 41.7956 176.77 38.5703C174.262 39.4215 171.932 40.183 169.558 40.9893C172.156 44.7522 174.62 48.4255 177.218 52.2779ZM276.758 129.641C274.518 132.553 272.502 135.285 270.352 137.928C269.769 138.645 269.68 139.317 269.814 140.168C270.262 142.9 270.62 145.588 270.979 148.321C271.158 149.844 271.292 151.367 271.427 153.069C271.83 152.845 272.009 152.756 272.143 152.621C274.428 150.068 276.399 147.246 277.878 144.155C278.102 143.617 278.37 143.035 278.326 142.453C278.146 138.152 277.564 133.941 276.758 129.641ZM267.709 188.817C267.216 189.13 266.947 189.264 266.768 189.399C263.498 191.863 260.227 194.326 256.912 196.745C256.106 197.328 255.793 198.045 255.569 198.94C254.941 201.628 254.359 204.316 253.732 207.004C253.508 207.9 253.284 208.796 252.97 210.05C256.689 207.765 259.735 205.301 262.691 202.659C263.901 201.583 264.707 200.374 265.11 198.761C265.693 196.477 266.454 194.192 267.126 191.907C267.35 190.967 267.485 190.026 267.709 188.817ZM88.7442 261.162C87.5347 258.743 86.5044 256.862 85.6084 254.891C85.1156 253.861 84.4885 253.323 83.3686 253.054C79.0232 251.979 74.7227 250.814 70.4222 249.65C69.1679 249.291 67.9136 248.888 66.6592 248.485C67.824 250.859 69.3023 252.875 70.691 254.936C71.3629 255.921 72.2141 256.503 73.334 256.862C77.0522 257.937 80.7703 259.012 84.4885 260.087C85.7428 260.446 87.0419 260.759 88.7442 261.162ZM32.2999 63.0738C32.2103 63.1186 32.0311 63.1186 31.9415 63.2082C29.2089 66.6575 26.521 70.062 23.8332 73.5561C23.5196 73.9593 23.2509 74.4968 23.2957 74.9448C23.5644 77.8117 24.4156 80.5443 25.9835 83.0529C29.1193 78.7076 32.1207 74.5864 35.0773 70.4652C34.1366 68.0014 33.1958 65.5376 32.2999 63.0738ZM61.6868 46.0513C63.2547 48.5151 64.9122 50.3069 66.7936 51.83C71.0046 48.2463 75.0363 44.8418 79.068 41.4373C77.7689 39.959 76.425 38.4359 74.9915 36.7785C70.5118 39.8694 66.1665 42.9156 61.6868 46.0513ZM106.529 39.0631C104.378 38.1224 102.363 37.2264 100.391 36.3753C96.6285 38.8839 90.0881 44.7522 89.013 46.5888C91.7456 47.7535 94.4782 48.8734 97.1661 49.9933C100.391 46.2305 103.393 42.6916 106.529 39.0631ZM44.2159 50.5309C40.7665 54.025 37.4515 57.3399 34.1814 60.6996C33.8678 61.0132 33.5542 61.6403 33.6438 62.0435C34.0022 64.5073 34.6293 66.9263 36.1524 69.1213C39.781 65.1344 43.32 61.282 46.7693 57.4743C45.963 55.2793 45.1566 53.1291 44.2159 50.5309ZM155.313 267.747C148.235 267.882 141.291 268.016 134.168 268.15C134.437 269.987 134.616 271.645 134.885 273.436C141.381 273.436 147.652 273.66 154.014 272.944C154.462 271.197 154.865 269.584 155.313 267.747ZM17.6512 97.8804C20.2047 93.2664 22.6685 88.8764 25.0427 84.5759C24.0124 81.8434 22.9821 79.2004 21.8174 76.1095C19.4431 80.2307 17.2481 83.9936 15.0978 87.8013C14.7842 88.3388 14.7394 89.1004 14.829 89.7275C15.2322 92.5497 16.0833 95.2374 17.6512 97.8804ZM196.212 44.8418C191.957 41.2133 188.015 37.988 183.893 35.121C181.877 36.1065 180.13 37.0025 178.204 37.988C181.564 41.5269 184.879 45.021 188.373 48.6495C190.882 47.44 193.39 46.2305 196.212 44.8418ZM112.173 266.538C112.845 267.971 113.517 269.27 114.099 270.614C114.547 271.6 115.219 272.048 116.339 272.137C119.296 272.361 122.252 272.72 125.254 272.944C127.897 273.123 130.585 273.168 133.362 273.302C133.541 271.376 133.138 269.718 132.825 268.016C125.971 267.523 119.206 267.031 112.173 266.538ZM204.903 39.5558C209.204 42.9604 213.37 46.2753 217.76 49.7694C219.104 47.7983 220.358 45.9169 221.792 43.8563C217.088 40.7653 212.608 37.8088 208.128 34.897C207.009 36.5545 205.978 37.988 204.903 39.5558ZM38.9298 226.49C39.0642 226.356 39.1538 226.221 39.2882 226.087C38.0339 222.638 36.7796 219.144 35.4357 215.739C35.2117 215.157 34.4501 214.664 33.8678 214.306C31.0456 212.514 28.1785 210.767 25.3563 208.93C24.4604 208.348 23.6092 207.676 22.7133 207.004C22.5789 207.093 22.4893 207.183 22.3549 207.273C23.878 210.722 25.4011 214.126 27.0138 217.576C27.2378 218.068 27.7306 218.516 28.2233 218.875C31.7623 221.428 35.3461 223.981 38.9298 226.49ZM225.107 243.513C229.855 241.542 234.111 239.481 238.142 236.972C238.725 236.614 239.307 236.032 239.666 235.405C241.144 233.03 242.577 230.567 244.011 228.148C244.19 227.834 244.28 227.476 244.414 227.117C239.755 229.267 235.275 231.373 230.796 233.523C230.258 233.792 229.676 234.285 229.407 234.822C227.974 237.555 226.674 240.332 225.107 243.513ZM221.568 246.514C215.923 248.261 210.458 249.874 205.037 251.576C204.634 251.71 204.231 251.979 204.007 252.337C202.708 254.532 201.498 256.817 200.155 259.191C200.647 259.146 200.916 259.191 201.185 259.102C205.709 257.623 210.234 256.145 214.714 254.622C215.206 254.443 215.744 254.219 216.058 253.861C218.118 251.621 219.955 249.247 221.568 246.514ZM57.9238 40.3622C57.8342 40.3622 57.7446 40.3174 57.6998 40.3622C53.8473 43.2739 49.9947 46.1409 46.187 49.0974C45.8734 49.3662 45.6046 50.0381 45.6942 50.4413C46.0526 52.5467 46.5901 54.6073 47.8893 56.3992C51.9658 52.8155 55.9527 49.3214 59.8949 45.8273C59.2229 43.9459 58.5958 42.154 57.9238 40.3622ZM176.815 265.642C169.961 266.359 163.331 267.031 156.612 267.703C156.209 269.45 155.805 271.152 155.357 272.944C155.985 272.944 156.343 272.988 156.746 272.944C160.733 272.54 164.765 272.137 168.752 271.734C174.038 271.152 174.038 271.152 176.502 266.493C176.547 266.269 176.636 266.09 176.815 265.642ZM87.4003 45.7377C91.3424 42.2884 95.1502 38.9735 98.9579 35.6586C97.3005 34.5387 95.8669 33.5532 94.3886 32.5676C89.8193 35.345 85.474 38.1672 81.1287 41.6165C83.3686 43.0499 85.3844 44.3938 87.4003 45.7377ZM13.4851 91.2058C13.3955 91.3402 13.1715 91.5193 13.0371 91.7881C11.514 95.4166 9.99092 99.0451 8.46782 102.629C8.33343 102.987 8.15424 103.346 8.19904 103.704C8.60221 107.019 9.40856 110.199 11.2004 113.245C13.0819 108.766 14.8738 104.51 16.6209 100.21C16.8001 99.8066 16.7553 99.2243 16.5761 98.7763C15.5906 96.2229 14.5602 93.7144 13.4851 91.2058ZM278.863 145.902C276.399 149.038 274.383 151.725 272.278 154.279C271.696 154.995 271.651 155.712 271.651 156.563C271.696 160.147 271.696 163.731 271.74 167.314C271.74 167.762 271.83 168.21 271.875 169.017C274.607 166.015 276.668 163.014 278.146 159.654C278.281 159.341 278.415 158.938 278.415 158.579C278.594 154.458 278.729 150.426 278.863 145.902ZM6.18317 166.194C6.04878 166.284 5.91439 166.329 5.78 166.418C6.18317 169.285 6.72074 172.108 7.03432 175.019C7.3031 177.707 8.33343 180.036 10.0805 182.052C11.6484 183.844 13.2163 185.591 14.829 187.338C15.053 187.607 15.4562 187.741 15.8145 188.01C15.3666 184.068 14.9634 180.305 14.605 176.542C14.5154 175.422 14.1123 174.616 13.2611 173.855C11.8276 172.556 10.4837 171.167 9.13978 169.778C8.15424 168.613 7.16871 167.359 6.18317 166.194ZM247.371 65.9855C248.356 64.1937 248.356 62.4019 248.625 60.6548C248.849 59.2213 248.535 58.0566 247.415 57.0263C244.952 54.7417 242.577 52.3675 240.158 50.0381C239.486 49.3662 238.725 48.7838 237.963 48.1119C237.471 50.4861 237.067 52.6363 236.619 54.7417C240.203 58.4598 243.653 62.1331 247.371 65.9855ZM185.192 34.3595C189.269 37.6296 193.256 40.8101 197.332 44.0355C199.259 42.7364 201.185 41.5269 202.842 39.5558C198.228 36.6441 193.749 33.8667 189.314 31.0894C187.791 32.2989 186.536 33.2844 185.192 34.3595ZM257.674 79.6036C258.66 77.3638 258.928 75.0792 259.063 72.7946C259.108 71.7195 258.839 70.7787 258.122 69.8828C255.837 67.0607 253.598 64.1489 251.313 61.3268C250.954 60.8788 250.507 60.5204 250.103 60.0725C249.566 62.5811 249.028 64.9552 248.535 67.3742C251.492 71.3611 254.538 75.3927 257.674 79.6036ZM113.338 271.958C112.531 270.256 111.904 269.091 111.456 267.837C111.053 266.627 110.292 266.135 109.037 265.955C105.14 265.418 101.243 264.791 97.3453 264.164C95.5534 263.895 93.7167 263.536 91.3872 263.089C92.9999 265.06 94.2543 266.627 95.5534 268.106C95.9117 268.509 96.4941 268.867 97.0317 268.957C102.318 269.987 107.559 270.928 113.338 271.958ZM223.27 43.4083C227.391 46.8576 231.378 50.1725 235.499 53.577C236.351 51.6508 236.575 49.6798 236.575 47.7087C236.575 47.216 236.171 46.5888 235.768 46.2305C232.184 43.2291 228.466 40.4518 224.435 37.8536C223.987 39.8246 223.628 41.5717 223.27 43.4083ZM74.3643 35.6586C73.782 34.0907 73.2892 32.6572 72.6621 30.955C68.048 33.7323 63.613 36.3753 59.2677 38.9735C59.6261 42.1092 60.0293 43.1843 61.2836 44.797C65.5841 41.7956 69.9294 38.7943 74.3643 35.6586ZM260.586 73.1081C259.914 75.8855 259.287 78.0805 258.839 80.3203C258.704 80.9027 258.928 81.6194 259.197 82.157C260.183 83.9936 261.347 85.7406 262.378 87.5325C263.587 89.6379 264.752 91.7881 266.096 94.2071C267.216 91.1162 267.709 88.2492 267.44 85.2927C267.395 85.0239 267.305 84.7103 267.171 84.4416C265.021 80.7683 262.915 77.1398 260.586 73.1081ZM196.795 261.879C196.033 261.879 195.72 261.834 195.451 261.879C190.12 262.909 184.789 263.984 179.458 265.06C179.055 265.149 178.518 265.328 178.338 265.642C177.353 267.255 176.502 268.867 175.337 270.973C180.847 269.763 185.864 268.688 190.882 267.613C191.285 267.523 191.778 267.299 192.046 267.031C193.569 265.463 195.048 263.805 196.795 261.879ZM139.096 32.5229C138.738 36.1513 138.424 39.511 138.111 43.0051C141.291 43.0051 144.203 43.0051 147.473 43.0051C146.756 39.3319 146.084 35.9274 145.413 32.5229C143.262 32.5229 141.336 32.5229 139.096 32.5229ZM136.811 43.1843C137.17 39.3767 137.663 36.0169 137.797 32.4333C135.647 32.2989 133.765 32.1645 131.749 32.0749C130.316 35.5242 128.748 38.8391 127.718 42.5572C130.853 42.7812 133.72 42.9604 136.811 43.1843ZM90.4913 28.3568C85.6532 30.7758 80.8599 33.15 76.3802 36.1513C77.9033 38.5703 78.7993 39.511 80.3671 40.407C84.6677 37.4952 88.9234 34.5835 93.3135 31.5821C92.3728 30.507 91.4768 29.4767 90.4913 28.3568ZM148.728 42.9604C151.774 42.6916 154.686 42.6468 157.777 41.8404C156.029 38.3463 154.372 35.0762 152.714 31.7165C150.609 31.9853 148.728 32.2093 146.712 32.4333C147.384 35.9274 148.011 39.2871 148.728 42.9604ZM263.363 204.047C259.645 206.735 256.33 209.109 253.015 211.483C252.612 211.752 252.209 212.2 252.03 212.648C250.73 216.008 249.521 219.367 248.132 223.041C251.895 220.667 255.076 218.068 258.032 215.112C258.391 214.753 258.66 214.261 258.884 213.813C260.317 210.677 261.751 207.586 263.363 204.047ZM7.12391 106.795C6.98952 107.153 6.81033 107.467 6.72074 107.78C5.86959 110.782 5.10804 113.828 4.2569 116.829C3.80892 118.442 3.76413 120.099 4.1673 121.667C4.70487 123.683 5.42162 125.609 6.09358 127.58C6.22797 128.028 6.58634 128.387 6.85513 128.79C8.06465 124.489 9.18458 120.323 10.4389 116.202C10.7077 115.306 10.5285 114.679 10.1701 113.917C9.13978 111.633 8.19904 109.303 7.12391 106.795ZM130.406 31.8957C128.39 31.5373 126.598 31.2238 124.851 30.9102C122.297 34.1355 120.013 37.316 117.818 40.8549C120.909 41.4821 123.596 42.154 126.374 42.154C127.718 38.7495 129.017 35.4794 130.406 31.8957ZM207.143 34.2251C202.036 31.6269 197.288 29.2079 192.449 26.7889C191.598 28.0432 190.882 29.1183 190.21 30.1487C194.824 33.0604 199.259 35.8826 203.918 38.7943C204.903 37.3608 205.889 36.0169 207.143 34.2251ZM221.926 42.4228C222.911 40.7205 222.956 38.8839 222.822 36.8233C218.566 34.0459 214.176 31.4925 209.472 29.2527C209.159 30.8654 208.845 32.2541 208.576 33.6875C213.011 36.5993 217.401 39.4662 221.926 42.4228ZM159.165 41.93C161.898 41.3925 164.496 40.8549 167.497 40.2278C164.765 36.9577 162.346 33.9563 159.837 31.0446C159.524 30.6862 158.762 30.5966 158.269 30.6414C156.881 30.8654 155.537 31.2238 154.058 31.5821C155.716 34.9418 157.373 38.3016 159.165 41.93ZM49.6363 241.766C50.5771 243.02 51.3834 243.961 52.1002 244.991C54.4744 248.395 57.5654 250.77 61.4628 252.203C64.0162 253.144 66.4801 254.308 69.4367 255.518C67.6896 252.785 66.2113 250.501 64.6882 248.216C64.4194 247.813 63.9266 247.544 63.4786 247.365C58.9989 245.573 54.5192 243.737 49.6363 241.766ZM116.384 40.6309C118.803 37.1816 121.043 34.0011 123.417 30.6414C121.804 30.1487 120.281 29.7007 118.579 29.2079C115.398 32.2093 112.263 35.2106 108.724 38.5703C111.591 39.3319 114.01 40.0038 116.384 40.6309ZM160.823 30.0591C163.555 33.4188 166.154 36.6441 168.797 39.8246C171.126 39.1527 173.411 38.6599 175.875 37.3608C172.425 34.4491 169.2 31.7165 165.93 29.0735C165.616 28.8048 165.078 28.6704 164.72 28.76C163.421 29.1183 162.167 29.5663 160.823 30.0591ZM269.008 87.8013C268.336 90.4442 267.888 92.5944 267.216 94.6999C266.902 95.6854 267.126 96.4021 267.529 97.2533C269.052 100.747 270.531 104.241 272.009 107.736C272.188 108.094 272.367 108.452 272.726 109.169C273.98 104.779 274.697 100.837 272.905 96.8501C271.561 93.9831 270.352 91.0266 269.008 87.8013ZM113.472 27.0129C109.351 29.6559 105.364 32.2541 101.422 35.5242C103.662 36.4649 105.543 37.2712 107.469 38.0776C110.74 34.9418 113.92 31.8957 117.235 28.7152C115.936 28.1328 114.771 27.6401 113.472 27.0129ZM88.7442 24.0116C83.6821 25.8034 78.8441 27.9984 74.2299 30.4174C74.4091 32.8364 74.6331 33.374 75.7531 34.8522C80.4567 32.2989 85.1156 29.7455 89.8641 27.1473C89.5058 26.117 89.1474 25.1763 88.7442 24.0116ZM93.5823 267.971C92.4176 266.359 91.2976 264.746 90.0881 263.268C89.7298 262.82 89.013 262.551 88.3858 262.372C86.7283 261.879 85.0708 261.565 83.4134 261.117C80.2776 260.266 77.1418 259.37 74.0508 258.519C75.4395 260.401 77.0522 261.969 78.7097 263.492C79.1128 263.895 79.6504 264.253 80.2328 264.388C84.4437 265.642 88.6546 266.851 92.8655 268.061C93.0447 268.106 93.2687 268.016 93.5823 267.971ZM278.012 162.835C277.026 164.268 276.31 165.433 275.548 166.463C274.294 168.121 272.547 169.554 271.785 171.391C271.024 173.317 271.203 175.602 270.934 177.752C270.71 179.768 270.441 181.739 270.128 184.113C276.444 176.811 277.026 173.989 278.012 162.835ZM29.2985 221.562C31.2695 224.833 32.6135 228.551 35.5701 231.149C38.4371 233.657 41.5729 235.763 45.3806 237.824C43.8127 234.867 42.424 232.403 41.1697 229.895C40.6321 228.775 39.8706 227.968 38.8402 227.341C35.6149 225.46 32.4791 223.489 29.2985 221.562ZM177.218 37.0473C179.01 36.1961 180.757 35.345 182.773 34.4043C182.057 33.8667 181.564 33.4188 180.981 33.0604C178.294 31.3134 175.651 29.5215 172.873 27.9088C169.379 25.8482 170.723 25.9378 166.915 27.8641C166.87 27.9088 166.826 27.9536 166.736 28.088C170.185 30.9998 173.635 33.9563 177.218 37.0473ZM19.0847 202.3C19.1743 201.987 19.3087 201.852 19.2639 201.718C18.368 198.179 17.5168 194.64 16.5761 191.101C16.4865 190.698 16.2177 190.295 15.9489 189.981C13.5747 187.517 11.1556 185.098 8.51262 182.5C9.36376 185.367 10.2149 188.01 10.9317 190.698C12.2756 195.491 15.7249 198.806 19.0847 202.3ZM58.2374 33.5084C57.5206 33.8667 57.0727 34.0907 56.6695 34.3595C54.0265 36.1961 51.473 38.0776 48.7852 39.8246C45.8286 41.7061 45.7838 44.6178 45.5598 47.7535C49.5468 44.7522 53.3097 41.9748 57.0727 39.1527C57.3414 38.9287 57.6998 38.6151 57.7446 38.3463C57.9686 36.8233 58.0582 35.3002 58.2374 33.5084ZM208.218 28.4464C203.156 26.341 198.407 24.37 193.48 22.3093C193.211 23.6532 193.032 24.6387 192.808 25.6242C197.691 28.088 202.484 30.507 207.501 33.0156C207.77 31.4477 207.994 30.1039 208.218 28.4464ZM236.485 239.526C233.439 241.004 230.661 242.527 227.705 243.692C225.107 244.722 222.956 246.021 221.702 248.619C221.254 249.56 220.492 250.322 219.91 251.173C219.641 251.531 219.507 251.979 219.059 252.785C226.45 249.918 232.677 246.424 236.485 239.526ZM112.128 26.2962C111.68 25.9826 111.412 25.8482 111.232 25.669C110.023 24.5043 108.813 24.6387 107.425 25.4003C104.065 27.2817 100.66 29.0288 97.2557 30.8654C96.7629 31.1342 96.3149 31.4925 95.643 31.9405C97.3005 33.0156 98.6892 33.9115 100.078 34.8075C104.154 31.8957 108.097 29.1631 112.128 26.2962ZM58.9541 37.4056C59.4021 37.4056 59.5813 37.4504 59.6709 37.4056C63.7922 34.9866 67.8688 32.6124 71.9453 30.1487C72.3037 29.9247 72.6621 29.4319 72.7516 28.984C72.9308 27.9088 72.9756 26.8337 73.11 25.3107C68.8543 27.5953 64.9122 29.6559 61.0148 31.7613C60.6116 31.9853 60.1637 32.4333 60.0293 32.8812C59.5813 34.3147 59.3125 35.8378 58.9541 37.4056ZM44.7087 42.9156C41.7073 45.6929 39.0642 48.2015 36.3764 50.6653C33.8678 52.9947 33.6886 56.0408 33.4646 59.4005C37.0484 55.996 40.3633 52.8155 43.6783 49.635C43.9471 49.3662 44.2159 48.9182 44.2607 48.5151C44.4399 46.8128 44.5295 45.1106 44.7087 42.9156ZM188.015 30.5518C183.087 27.7745 178.428 25.5347 173.59 23.5636C172.784 24.2356 172.112 24.8179 171.35 25.4451C175.695 28.2224 179.861 30.9102 184.072 33.598C185.327 32.6124 186.491 31.7165 188.015 30.5518ZM4.43608 144.782C5.06324 140.571 5.55601 136.853 6.18317 133.225C6.45195 131.746 6.27276 130.492 5.55601 129.193C4.74966 127.759 4.30169 126.192 3.67453 124.668C3.54014 124.31 3.36095 123.997 3.18177 123.638C2.46501 126.729 2.10664 129.73 1.74826 132.777C1.30029 136.898 2.50981 140.661 4.43608 144.782ZM135.692 277.871C136.587 277.916 137.349 278.006 138.066 277.961C141.784 277.961 145.502 277.961 149.22 277.826C152.67 277.692 152.042 278.006 153.342 274.915C153.386 274.825 153.297 274.646 153.252 274.422C147.294 274.512 141.291 274.646 135.064 274.78C135.288 275.811 135.468 276.707 135.692 277.871ZM194.421 266.538C195.451 266.314 195.944 266.269 196.392 266.09C199.214 265.149 201.991 264.119 204.858 263.268C208.532 262.193 210.771 259.281 213.325 256.772C208.666 258.071 204.052 259.46 199.483 260.894C199.079 261.028 198.676 261.297 198.407 261.61C197.153 263.089 195.988 264.612 194.421 266.538ZM115.846 273.436C117.19 275.363 118.221 276.886 120.505 277.02C124.582 277.199 128.658 277.602 132.735 277.871C133.228 277.916 133.72 277.782 134.392 277.692C134.168 276.572 133.944 275.587 133.72 274.646C127.718 274.243 121.984 273.84 115.846 273.436ZM94.4782 30.9102C99.1819 28.3568 103.751 25.9378 108.41 23.4292C107.783 22.7125 107.29 22.1749 106.753 21.6374C101.646 23.4292 96.6733 25.3555 91.7008 27.8641C92.7311 29.0288 93.6271 29.9695 94.4782 30.9102ZM153.566 277.737C158.18 277.199 162.391 276.572 166.602 276.303C169.289 276.169 170.723 274.601 172.291 272.585C166.333 273.168 160.599 273.75 154.865 274.332C154.462 275.452 154.103 276.348 153.566 277.737ZM208.173 23.6084C208.487 24.6387 208.756 25.1763 208.8 25.7586C208.89 27.4161 209.92 28.088 211.264 28.8048C214.624 30.5518 217.894 32.4781 221.164 34.3147C221.568 34.5387 222.016 34.7179 222.732 35.0762C222.329 33.8219 222.105 32.8812 221.702 32.0301C221.299 31.179 220.896 30.1487 220.179 29.7007C216.506 27.3265 212.563 25.4899 208.173 23.6084ZM275.19 104.51C274.742 106.257 274.383 108.094 273.801 109.796C273.443 110.826 273.443 111.767 273.756 112.798C274.786 116.292 275.727 119.786 276.713 123.28C276.802 123.593 276.982 123.907 277.206 124.355C279.849 117.322 277.385 110.961 275.19 104.51ZM32.5687 55.0553C32.4791 55.0105 32.3447 54.9657 32.2551 54.9209C30.2392 57.3847 28.3129 59.9381 26.2523 62.3571C24.4156 64.5073 23.7436 67.0607 23.3405 69.7036C23.2509 70.3756 23.3405 71.0475 23.3405 71.8986C26.2075 68.3597 28.9401 65.0448 31.6727 61.7299C31.9415 61.4163 32.2103 60.9684 32.2551 60.5652C32.3447 58.7286 32.4343 56.8919 32.5687 55.0553ZM236.216 44.797C235.499 41.3925 234.335 38.5703 231.378 36.7337C228.959 35.2554 226.719 33.598 224.345 32.0301C223.987 31.8061 223.539 31.6717 223.046 31.4477C223.359 32.7916 223.583 34.0011 223.987 35.0762C224.211 35.7034 224.614 36.4201 225.151 36.8233C228.69 39.4662 232.319 42.0196 236.216 44.797ZM73.9164 28.9392C79.0232 26.6994 83.7269 24.6387 88.6098 22.5333C88.7442 21.6822 88.8786 20.7415 89.0578 19.6664C88.341 19.8455 87.9379 19.8903 87.5347 20.0247C83.9061 21.3238 80.2776 22.6677 76.649 23.922C75.0811 24.4595 74.3643 25.4451 74.2747 27.0129C74.1852 27.5057 74.0508 28.0432 73.9164 28.9392ZM191.195 26.3858C185.999 24.1908 180.981 22.2197 175.74 20.6967C175.337 21.3686 174.979 21.9062 174.62 22.4885C179.458 24.8627 184.162 27.1473 189 29.5215C189.762 28.4912 190.389 27.5057 191.195 26.3858ZM192.405 17.8745C192.853 19.3528 193.121 20.2487 193.345 20.9654C198.184 22.9365 202.842 24.8627 207.546 26.7889C207.277 24.1012 206.695 22.9365 205.127 22.3541C201.051 20.8759 196.974 19.4872 192.405 17.8745ZM241.995 234.374C248.177 230.656 252.522 225.729 255.703 219.188C252.612 221.383 249.835 223.31 247.102 225.236C246.923 225.37 246.788 225.549 246.654 225.729C245.176 228.506 243.653 231.283 241.995 234.374ZM90.9841 26.6098C96.1805 24.5043 101.108 22.4885 106.125 20.4279C105.901 19.8455 105.722 19.308 105.454 18.636C100.167 20.0695 95.0158 21.4582 89.9089 23.5636C90.3121 24.6835 90.6257 25.5347 90.9841 26.6098ZM247.684 55.5481C247.505 52.7707 246.654 50.2621 244.728 48.3359C242.488 46.0513 240.069 43.9459 237.695 41.7957C237.471 41.5717 237.157 41.4821 236.754 41.2581C237.605 46.1409 237.605 46.1409 240.92 49.0974C241.681 49.7694 242.488 50.4861 243.249 51.2028C244.728 52.6363 246.206 54.0698 247.684 55.5481ZM98.5548 270.659C100.167 272.361 101.646 274.019 104.11 274.422C106.17 274.736 108.186 275.228 110.247 275.587C112.173 275.9 114.144 276.169 116.205 276.438C115.174 273.66 113.203 272.675 110.65 272.63C109.978 272.63 109.306 272.451 108.679 272.361C105.274 271.779 101.915 271.197 98.5548 270.659ZM176.636 17.4266C176.502 18.3225 176.412 18.9048 176.367 19.3976C181.474 21.3238 186.447 23.1605 191.688 25.1315C191.822 24.0564 191.957 23.0709 192.091 21.8614C186.939 20.3831 181.967 18.9496 176.636 17.4266ZM140.306 22.4437C139.947 25.3555 139.634 28.1776 139.275 31.179C141.246 31.179 143.038 31.179 145.144 31.179C144.427 28.1328 143.755 25.3107 143.083 22.4437C142.053 22.4437 141.291 22.4437 140.306 22.4437ZM189.358 269.45C184.207 270.435 179.548 271.286 174.889 272.182C174.575 272.227 174.172 272.451 173.948 272.72C173.187 273.571 172.425 274.512 171.395 275.766C175.113 274.959 178.338 274.198 181.609 273.616C184.52 273.078 186.805 271.6 189.358 269.45ZM138.021 31.2238C138.379 28.2224 138.693 25.4003 139.096 22.3093C138.155 22.2197 137.349 22.1301 136.453 22.0406C135.064 24.9971 133.72 27.7745 132.287 30.8206C134.348 30.9998 136.095 31.0894 138.021 31.2238ZM266.768 197.731C271.427 192.938 273.219 186.89 274.652 180.664C273.935 181.425 273.398 182.321 272.681 182.993C269.993 185.502 268.829 188.637 268.201 192.176C267.888 194.058 267.261 195.85 266.768 197.731ZM146.353 30.8654C149.265 31.0894 149.847 30.9998 151.863 30.1487C150.206 27.4161 148.548 24.7283 146.891 21.951C146.04 22.0406 145.323 22.0854 144.337 22.1749C145.054 25.2211 145.681 28.088 146.353 30.8654ZM14.7394 85.4719C17.1137 81.6642 19.3535 78.1253 21.5038 74.6312C21.683 74.3176 21.8174 73.9593 21.8622 73.6009C21.9517 71.8986 21.9965 70.2412 22.0861 68.0462C18.816 73.7353 14.829 78.5733 14.7394 85.4719ZM130.943 30.6414C132.377 27.6401 133.676 24.8627 135.109 21.951C133.989 21.6822 133.093 21.1894 132.287 22.1749C130.226 24.5939 128.166 27.0577 126.105 29.4767C126.06 29.5215 126.15 29.7455 126.195 29.9247C127.673 30.1487 129.241 30.4174 130.943 30.6414ZM75.2603 262.013C73.8716 260.49 72.5277 259.012 71.139 257.534C70.8702 257.22 70.3774 257.131 69.9742 256.951C66.928 255.697 63.9266 254.488 60.8804 253.278C60.5668 253.144 60.1637 253.099 59.6709 253.009C63.9266 257.758 69.3023 260.311 75.2603 262.013ZM105.454 15.6347C100.347 16.5306 95.3742 17.6057 90.4913 19.1288C90.3121 20.1143 90.1329 20.9207 89.9089 22.0854C91.6112 21.503 92.9999 21.0102 94.3886 20.6071C97.6588 19.6216 100.884 18.6361 104.199 17.6953C105.095 17.4714 105.812 17.1578 105.454 15.6347ZM91.0737 15.3211C86.9075 16.3067 82.9654 17.3818 79.2024 18.9048C77.6793 19.532 76.7386 20.9655 76.0666 22.7125C80.0984 21.3238 83.8165 19.8903 87.6691 18.7256C89.5058 18.1881 90.3569 17.113 91.0737 15.3211ZM148.28 21.8166C150.027 24.6835 151.684 27.4609 153.386 30.3278C154.999 30.0143 156.477 29.7455 158.18 29.3871C157.866 28.8944 157.732 28.6256 157.553 28.4464C155.492 26.3858 153.431 24.4148 151.415 22.3093C150.519 21.3686 149.623 21.1894 148.28 21.8166ZM62.0003 29.6111C62.4931 29.3871 63.0307 29.1183 63.5234 28.8944C66.1665 27.5505 68.8095 26.2066 71.4525 24.9075C74.2299 23.5636 74.4539 23.3844 75.6635 20.1143C72.8412 21.4134 70.1982 22.7573 67.4656 23.922C64.8674 24.9971 63.2099 27.0129 62.0003 29.6111ZM14.4258 199.478C16.4865 205.212 20.2943 212.2 24.1468 214.753C22.9373 211.618 21.7726 208.616 20.563 205.615C20.3838 205.167 19.9807 204.809 19.5775 204.45C17.92 202.793 16.1729 201.135 14.4258 199.478ZM131.301 21.3238C130.45 20.4727 129.644 20.6519 128.748 21.3238C126.643 22.9365 124.447 24.5491 122.342 26.1618C121.58 26.7442 120.819 27.4161 119.744 28.312C121.625 28.76 123.014 29.1183 124.313 29.4319C126.777 26.6098 129.017 23.9668 131.301 21.3238ZM1.52427 141.377C1.38988 147.425 0.986708 153.517 3.89852 159.475C4.03291 158.938 4.1225 158.758 4.1225 158.534C4.2121 155.13 4.34649 151.681 4.39129 148.276C4.39129 147.783 4.30169 147.246 4.1225 146.798C3.27136 144.961 2.37542 143.169 1.52427 141.377ZM151.729 20.6519C153.879 22.8917 155.85 24.9075 157.777 26.9233C159.927 29.2079 159.927 29.2079 162.883 28.0432C163.152 27.9536 163.421 27.7745 163.824 27.5505C160.554 24.9523 157.149 22.7125 153.655 20.6519C153.252 20.3831 152.49 20.6519 151.729 20.6519ZM176.412 14.7388C176.143 16.2619 176.905 16.3962 177.801 16.665C181.922 17.7401 185.999 18.9048 190.075 20.0247C190.613 20.1591 191.15 20.2935 191.822 20.4727C191.106 17.6953 191.106 17.6953 188.731 17.1578C186.133 16.5754 183.49 15.9931 180.892 15.4555C179.414 15.0972 177.935 14.9628 176.412 14.7388ZM258.167 67.6878C257.54 63.3874 252.702 55.8616 248.894 53.1739C249.163 54.4729 249.431 55.772 249.745 57.0711C249.835 57.4743 250.014 57.9222 250.283 58.2358C252.791 61.3716 255.389 64.4177 258.167 67.6878ZM39.1538 235.539C42.4688 240.422 46.6797 244.229 52.2346 247.275C50.4427 244.812 48.9196 242.751 47.3965 240.69C47.2173 240.466 46.9933 240.198 46.7693 240.063C44.2607 238.54 41.7073 237.062 39.1538 235.539ZM279.177 122.07C278.639 123.773 278.102 125.52 277.564 127.222C277.519 127.401 277.609 127.67 277.609 127.894C278.236 131.701 278.863 135.464 279.535 139.586C281.551 133.538 280.028 127.849 279.177 122.07ZM127.986 20.2487C127.942 20.1143 127.897 19.9799 127.807 19.8455C127.449 19.8455 127.046 19.6664 126.732 19.8008C122.656 21.6374 118.758 23.7428 114.727 26.341C116.115 26.9233 117.28 27.3713 118.31 27.7745C121.715 25.1315 124.851 22.7125 127.986 20.2487ZM204.231 20.5623C204.365 20.4279 204.455 20.3383 204.589 20.2039C203.38 19.1736 202.305 17.6953 200.871 17.1578C197.377 15.8587 193.704 14.918 190.12 13.8877C190.702 15.1867 191.106 16.3962 192.449 16.7994C196.392 18.0537 200.334 19.308 204.231 20.5623ZM168.886 25.3555C164.406 23.2501 160.42 21.3238 156.388 19.4872C156.029 19.308 155.492 19.4424 154.462 19.4424C155.313 20.0695 155.671 20.3831 156.074 20.6519C158.717 22.4437 161.36 24.1908 163.914 26.117C165.034 26.9681 165.974 27.0577 167.094 26.3858C167.497 26.117 167.901 25.9378 168.886 25.3555ZM106.932 12.499C102.542 13.2157 98.4652 13.8429 94.3886 14.6044C92.9551 14.8732 92.5072 15.5003 91.7904 17.337C96.2253 16.3962 100.705 15.4107 105.185 14.47C106.125 14.246 106.618 13.8429 106.932 12.499ZM113.383 25.5347C117.549 23.2501 121.536 21.0102 125.926 18.5913C125.119 18.5017 124.761 18.3673 124.492 18.4569C119.923 19.9799 115.443 21.6822 110.829 23.922C111.86 24.5939 112.666 25.0867 113.383 25.5347ZM49.4124 37.7192C49.9051 37.4056 50.3531 37.1368 50.8459 36.8233C52.9065 35.4794 54.788 33.8667 56.9831 32.7916C59.2677 31.6717 60.0741 29.6559 61.0596 27.6401C56.6695 30.4174 51.921 32.6572 49.4124 37.7192ZM98.7788 273.212C96.9421 270.928 95.0606 269.584 92.5072 269.181C90.4017 268.822 88.341 268.15 86.2356 267.613C85.3396 267.389 84.4437 267.075 83.5029 266.807C87.8035 270.704 93.2687 271.555 98.7788 273.212ZM204.813 18.4569C206.113 20.8311 207.591 22.1749 209.696 22.9813C212.16 23.922 214.534 25.2659 216.909 26.3858C217.312 26.565 217.805 26.7441 218.566 27.0129C215.072 22.1301 209.876 20.8311 204.813 18.4569ZM172.112 23.1605C168.886 21.2342 159.076 17.9641 157.015 18.2329C161.495 20.4279 165.75 22.5781 170.096 24.6835C170.812 24.1908 171.44 23.698 172.112 23.1605ZM174.351 11.5583C174.934 12.9917 175.651 13.3501 176.591 13.4845C180.399 14.1564 184.162 14.918 187.925 15.6347C188.328 15.7243 188.731 15.6347 189.269 15.6347C188.239 13.9325 186.895 13.1709 185.058 12.9469C181.564 12.6334 178.159 12.0958 174.351 11.5583ZM212.384 259.953C217.401 257.937 221.926 255.249 225.734 251.262C223.897 251.979 222.195 253.054 220.313 253.592C216.774 254.667 214.669 257.399 212.384 259.953ZM109.664 22.8917C114.458 20.9654 119.072 19.1288 123.731 17.2922C123.686 17.1578 123.641 16.9786 123.596 16.8442C118.445 17.9641 113.338 19.3976 108.097 21.2342C108.724 21.9062 109.216 22.3989 109.664 22.8917ZM159.12 16.2619C159.076 16.441 158.986 16.6202 158.941 16.7994C163.69 18.5017 168.483 20.2039 173.366 21.951C173.724 21.4582 174.038 20.9207 174.575 20.1143C169.245 18.7704 164.183 17.5161 159.12 16.2619ZM109.485 10.3936C109.44 10.2144 109.44 10.0352 109.396 9.90081C105.901 9.85601 102.407 10.2144 98.9579 10.7967C97.7036 11.0207 96.7181 11.827 95.6878 12.9469C99.8539 12.4094 103.841 11.9166 107.783 11.3343C108.41 11.1999 108.948 10.7071 109.485 10.3936ZM81.4423 16.7098C82.2038 16.5306 82.5174 16.441 82.8758 16.3514C85.6084 15.5899 88.2962 14.7388 91.0289 14.1564C92.7311 13.7981 93.8959 12.8574 95.2398 11.3343C90.2673 12.6334 85.4292 12.9021 81.4423 16.7098ZM107.021 18.2777C107.38 20.0247 107.425 20.0695 108.858 19.6664C113.159 18.4569 117.459 17.2474 121.76 16.0379C122.118 15.9483 122.432 15.7691 122.745 15.6347C117.459 15.9931 112.307 16.9786 107.021 18.2777ZM202.439 265.552C199.841 266.314 197.243 267.255 194.555 267.837C192.405 268.33 190.926 269.629 189.358 271.152C192.942 270.793 199.214 268.195 202.439 265.552ZM159.568 15.0972C164.72 16.3962 169.827 17.6505 174.934 18.9496C175.113 18.5913 175.247 18.4121 175.247 18.1881C175.292 17.9193 175.203 17.6505 175.158 17.2922C169.961 16.1723 164.81 15.2315 159.568 15.0972ZM8.7366 98.3284C9.99092 95.5958 11.1556 92.8184 12.5444 90.1307C13.4851 88.3388 13.4403 86.5918 13.2611 84.2176C11.2004 89.0556 9.09498 93.356 8.7366 98.3284ZM184.296 11.5135C184.117 11.2895 184.028 11.0655 183.848 10.9759C182.46 10.0352 181.026 9.49764 179.279 9.36325C176.636 9.18407 174.038 8.8705 171.35 9.27366C171.932 9.76642 172.515 10.304 173.187 10.3936C176.86 10.7967 180.533 11.1551 184.296 11.5135ZM122.342 14.022C121.312 13.9773 120.819 13.8877 120.326 13.9325C117.683 14.1564 114.995 14.3804 112.352 14.6492C110.874 14.7836 109.396 15.0972 107.962 15.2763C106.977 15.4107 106.753 15.9483 107.066 16.889C111.994 15.9483 116.922 15.0076 122.342 14.022ZM197.646 14.6044C194.779 12.3646 188.283 10.2144 185.327 10.7071C186.715 11.4239 187.791 12.1406 188.955 12.499C191.733 13.3053 194.555 13.8877 197.646 14.6044ZM121.177 278.274C121.133 278.454 121.132 278.678 121.088 278.857C125.612 280.021 130.271 280.111 135.244 280.201C134.885 279.708 134.796 279.394 134.661 279.349C130.137 278.991 125.657 278.633 121.177 278.274ZM173.097 12.8574C172.828 11.827 172.067 11.6031 171.216 11.6031C167.497 11.5583 163.779 11.5583 160.106 11.6031C159.703 11.6031 159.3 11.7822 158.583 11.9166C163.6 12.2302 168.259 12.5438 173.097 12.8574ZM159.882 13.0365C159.837 13.1709 159.792 13.3053 159.748 13.4397C164.63 14.246 169.513 15.0076 174.396 15.7691C174.575 15.8139 174.755 15.6347 174.934 15.5451C174.889 14.2908 173.948 14.3356 173.142 14.246C168.707 13.8429 164.317 13.4397 159.882 13.0365ZM150.967 279.215C146.129 279.215 141.246 279.215 136.408 279.215C136.453 280.38 137.125 280.29 137.663 280.29C141.515 280.245 145.413 280.201 149.265 280.156C150.027 280.201 150.743 280.066 150.967 279.215ZM102.004 9.00488C105.498 8.8257 108.545 8.7809 111.591 8.51213C112.352 8.46733 113.024 7.92978 113.786 7.57141C109.888 7.39222 105.991 6.4963 102.004 9.00488ZM265.962 79.6036C264.707 75.1688 262.288 71.3611 259.78 67.5534C259.824 68.5389 259.914 69.4796 260.093 70.4204C260.138 70.6891 260.362 70.9579 260.496 71.1819C262.333 74.0041 264.17 76.7814 265.962 79.6036ZM230.079 34.2251C228.018 31.3134 222.329 27.0577 220 26.6994C220.672 27.5505 221.12 28.536 221.881 29.0288C224.435 30.7758 227.122 32.3885 230.079 34.2251ZM236.127 242.841C239.173 240.69 243.653 236.166 244.996 233.971C239.845 237.286 238.322 238.764 236.127 242.841ZM107.962 13.4397C108.007 13.5741 108.097 13.7085 108.141 13.8429C112.979 13.3501 117.818 12.8574 122.7 12.3646C118.355 12.0958 113.965 11.9614 109.62 12.5438C109.037 12.5886 108.5 13.1261 107.962 13.4397ZM2.77859 160.505C2.73379 163.596 4.2569 170.988 5.42162 173.003C5.10804 170.181 4.70487 167.628 4.57048 165.03C4.43608 163.328 3.80892 161.939 2.77859 160.505ZM169.693 10.304C169.737 10.1248 169.782 9.90081 169.782 9.72162C169.065 9.49764 168.304 9.00488 167.632 9.04968C164.183 9.27366 160.733 9.58723 157.329 9.85601C157.329 9.9904 157.329 10.1248 157.373 10.2592C161.45 10.304 165.571 10.304 169.693 10.304ZM165.706 278.185C165.706 278.006 165.661 277.871 165.661 277.692C164.854 277.782 164.048 277.916 163.287 277.961C160.196 278.274 157.105 278.543 154.014 278.857C153.476 278.902 152.759 278.767 152.714 279.887C157.149 279.663 161.495 279.35 165.706 278.185ZM176.95 7.88498C174.486 6.27232 168.841 5.73477 166.781 6.89947C170.141 8.51213 173.635 7.21304 176.95 7.88498ZM262.87 208.885C265.066 205.705 266.857 202.3 268.515 198.358C264.886 201.315 264.214 205.301 262.87 208.885ZM131.839 3.94292C131.794 4.07731 131.794 4.2565 131.749 4.39088C133.541 5.15242 134.751 7.52661 137.528 6.27232C136.901 5.28681 136.408 4.43568 135.826 3.53976C134.437 3.71894 133.138 3.85333 131.839 3.94292ZM38.7507 45.6929C38.885 45.8721 39.0642 46.0065 39.1986 46.1857C40.8561 44.7522 42.4688 43.2291 44.2159 41.93C45.6942 40.8549 46.4558 39.4215 46.8589 37.6296C44.1711 40.3174 41.4385 43.0051 38.7507 45.6929ZM143.128 6.13793C145.95 7.57141 146.846 5.19721 148.817 3.76374C146.846 3.76374 145.413 3.76374 143.8 3.76374C143.576 4.52527 143.352 5.3316 143.128 6.13793ZM138.917 6.31712C139.858 6.31712 140.709 6.31712 141.739 6.31712C141.963 5.46599 142.187 4.61486 142.456 3.58455C140.709 3.58455 139.186 3.58455 137.483 3.58455C138.021 4.65966 138.469 5.46599 138.917 6.31712ZM154.103 4.83885C151.326 3.71894 150.34 3.45017 147.518 6.89947C150.251 7.6162 151.908 5.3764 154.103 4.83885ZM165.168 7.88498C165.168 7.75059 165.168 7.57141 165.168 7.43702C164.406 7.25784 163.6 6.80987 162.883 6.94426C160.106 7.34743 157.373 7.79539 154.596 8.7809C154.865 8.96009 154.954 9.09448 155.089 9.04968C158.448 8.64652 161.808 8.24335 165.168 7.88498ZM151.326 7.57141C152.759 8.01937 155.895 7.39222 159.792 5.95875C157.687 5.06283 158.135 4.39088 151.326 7.57141ZM111.053 10.5727C111.098 10.6623 111.188 10.7967 111.232 10.8863C115.488 10.8863 119.744 10.8863 124 10.8863C124 10.7071 124 10.528 124 10.3936C120.326 10.2144 116.653 9.9904 112.935 9.90081C112.352 9.85601 111.68 10.304 111.053 10.5727ZM115.219 8.19855C115.219 8.28815 115.264 8.42253 115.264 8.51213C118.937 8.8257 122.611 9.18407 126.284 9.49764C123.328 8.28815 120.326 7.75059 117.235 7.6162C116.608 7.6162 115.891 8.01937 115.219 8.19855ZM126.015 5.19721C128.434 5.60038 130.406 7.661 133.452 7.07865C130.988 5.15242 128.927 3.58455 126.015 5.19721ZM119.341 5.15242C116.205 4.57007 113.293 4.2565 110.023 6.00354C113.383 5.60038 116.294 7.03386 119.341 5.15242ZM129.286 8.37774C129.33 8.15376 129.375 7.92978 129.465 7.75059C126.463 7.07865 123.731 4.79405 120.013 6.5411C123.328 7.21304 126.284 7.79539 129.286 8.37774ZM70.4222 20.9654C73.4236 19.3528 77.097 19.1288 79.4264 16.3067C76.201 17.3818 73.0652 18.6808 70.4222 20.9654ZM280.386 141.243C280.162 142.094 279.759 142.99 279.714 143.841C279.625 146.753 279.669 149.665 279.669 152.621C280.655 151.009 281.013 144.961 280.386 141.243ZM160.912 4.52527C163.376 5.95875 165.885 5.4212 168.752 4.92844C165.974 3.76374 163.466 3.85333 160.912 4.52527ZM126.195 3.40537C123.731 2.19587 121.625 3.047 119.161 3.40537C121.984 4.57007 122.476 4.57007 126.195 3.40537ZM28.7161 224.295C28.8505 224.205 28.9849 224.116 29.1193 223.981C27.4618 221.607 26.8346 218.472 23.6988 217.128C25.3563 219.547 27.0138 221.921 28.7161 224.295ZM118.31 278.812C118.355 278.588 118.4 278.409 118.445 278.185C115.13 277.244 111.68 277.155 108.276 276.572C108.858 276.886 109.485 277.154 110.112 277.289C112.845 277.826 115.578 278.319 118.31 278.812ZM91.5664 10.7519C97.9724 9.67683 98.6892 9.76642 99.9435 8.15376C97.1661 8.73611 94.4782 9.09448 91.5664 10.7519ZM160.061 2.95741C154.73 2.19587 154.73 2.19587 153.476 3.0918C157.821 3.94292 157.821 3.94292 160.061 2.95741ZM136.229 1.56873C137.931 2.50945 141.829 2.41985 143.352 1.56873C140.798 1.56873 138.514 1.56873 136.229 1.56873ZM134.616 2.06149C132.197 1.56873 129.33 1.79271 127.897 2.46465C129.51 3.047 131.973 2.95741 134.616 2.06149ZM144.382 2.06149C149.355 2.86782 150.027 2.86782 151.46 1.8375C149.265 1.74791 147.204 1.61352 145.144 1.52393C145.009 1.52393 144.83 1.74791 144.382 2.06149ZM141.515 16.8442C141.336 16.8442 141.202 16.889 141.022 16.889C140.888 18.2329 140.709 19.5768 140.574 21.0998C141.426 21.055 141.963 21.0102 142.68 20.9654C142.277 19.4872 141.874 18.1881 141.515 16.8442ZM137.215 20.7415C139.231 21.0102 139.275 21.0102 139.499 19.7112C139.634 18.9048 139.634 18.0985 139.723 17.337C139.589 17.2922 139.455 17.2922 139.32 17.2474C138.603 18.3225 137.976 19.3976 137.215 20.7415ZM142.814 16.889C143.083 17.8745 143.352 18.7704 143.621 19.6664C144.069 21.0998 144.069 21.0998 145.771 20.4279C144.92 19.308 144.113 18.1881 143.307 17.0682C143.217 17.0234 143.083 17.0234 142.814 16.889ZM145.816 17.5161C147.07 20.6519 147.16 20.6967 148.728 19.9351C147.742 19.1288 146.801 18.3225 145.816 17.5161ZM180.265 7.12345C181.833 8.73611 183.893 8.69131 185.909 8.60172C184.028 8.10896 182.146 7.6162 180.265 7.12345ZM133.855 20.5175C134.84 20.5175 135.557 20.6967 135.736 20.4727C136.408 19.6664 137.17 18.7704 137.259 17.2474C136.095 18.4121 135.154 19.308 133.855 20.5175ZM175.427 276.483C173.232 276.617 171.081 276.572 169.2 277.871C171.305 277.423 173.366 276.931 175.427 276.483ZM80.1432 266.807C79.1128 265.015 77.321 264.567 75.3499 264.432C76.9626 265.239 78.5305 266.045 80.1432 266.807ZM131.301 19.6664C132.959 19.9799 133.004 19.9799 134.661 17.4714C133.631 18.1433 132.601 18.8152 131.301 19.6664ZM205.754 17.6057C204.5 16.5754 203.156 15.5899 201.543 15.3659C201.498 15.5003 201.409 15.6795 201.364 15.8139C202.842 16.3962 204.321 17.0234 205.754 17.6057ZM139.544 7.75059C139.992 8.7809 140.306 9.49764 140.798 10.6175C141.067 9.40805 141.246 8.60172 141.426 7.75059C140.709 7.75059 140.261 7.75059 139.544 7.75059ZM142.366 10.3936C143.173 9.36325 143.755 8.69131 144.427 7.84019C142.59 7.84019 142.59 7.84019 142.366 10.3936ZM136.901 8.01937C137.618 8.69131 138.29 9.31846 138.917 9.90081C138.379 7.92978 138.379 7.92978 136.901 8.01937ZM148.907 17.8745C148.817 18.0089 148.728 18.1881 148.683 18.3225C149.534 18.7704 149.937 20.1143 151.819 19.4424C150.609 18.8152 149.758 18.3673 148.907 17.8745ZM53.3097 249.336C53.3097 249.605 53.2649 249.739 53.2649 249.784C54.0265 250.456 54.788 251.262 55.7735 251.576C55.8631 251.442 55.9527 251.307 55.9975 251.218C55.1464 250.59 54.2504 250.008 53.3097 249.336ZM129.062 18.6808C129.151 18.8152 129.196 18.9944 129.286 19.1288C130.092 19.1736 130.54 18.6808 130.898 17.9193C130.271 18.1881 129.644 18.4121 129.062 18.6808ZM5.78 105.541C6.58634 104.286 6.58634 104.286 6.45195 102.987C6.18317 104.017 5.95919 104.779 5.78 105.541ZM147.16 8.24335C145.816 8.33294 145.816 8.33294 145.099 9.63203C145.861 9.09448 146.398 8.73611 147.16 8.24335ZM134.437 8.01937C134.303 8.28815 134.168 8.42253 134.213 8.46733C134.661 9.00488 135.199 9.27366 136.408 9.27366C135.512 8.69131 134.975 8.37774 134.437 8.01937ZM149.713 8.8705C149.668 8.7809 149.623 8.69131 149.623 8.60172C149.22 8.7809 148.817 8.91529 148.369 9.09448C148.414 9.18407 148.459 9.27366 148.504 9.40805C148.862 9.22887 149.31 9.04968 149.713 8.8705ZM152.311 17.9193C152.266 18.0537 152.222 18.1433 152.177 18.2777C152.625 18.4569 153.118 18.6361 153.566 18.8152C153.61 18.6808 153.655 18.5465 153.7 18.3673C153.297 18.2329 152.804 18.0985 152.311 17.9193ZM126.643 16.4858C126.643 16.3962 126.643 16.3514 126.598 16.2619C126.284 16.3067 125.971 16.3514 125.657 16.3962C125.657 16.4858 125.657 16.5306 125.702 16.6202C126.015 16.5754 126.329 16.5306 126.643 16.4858ZM131.794 8.96009C131.749 9.04968 131.749 9.18407 131.705 9.27366C131.973 9.31846 132.197 9.36325 132.466 9.40805C132.466 9.36325 132.511 9.27366 132.511 9.22887C132.287 9.09448 132.018 9.00488 131.794 8.96009Z" fill="#757575" fill-opacity="0.9"/>
</svg>
