<svg width="20" height="20" viewBox="0 0 20 20" fill="none" xmlns="http://www.w3.org/2000/svg">
<path d="M14.1667 17.4998C15.0871 17.4998 15.8333 16.7536 15.8333 15.8332C15.8333 14.9127 15.0871 14.1665 14.1667 14.1665C13.2462 14.1665 12.5 14.9127 12.5 15.8332C12.5 16.7536 13.2462 17.4998 14.1667 17.4998Z" stroke="#121212" stroke-width="1.5" stroke-linecap="round" stroke-linejoin="round"/>
<path d="M6.66667 17.4998C7.58714 17.4998 8.33333 16.7536 8.33333 15.8332C8.33333 14.9127 7.58714 14.1665 6.66667 14.1665C5.74619 14.1665 5 14.9127 5 15.8332C5 16.7536 5.74619 17.4998 6.66667 17.4998Z" stroke="#121212" stroke-width="1.5" stroke-linecap="round" stroke-linejoin="round"/>
<path d="M2.5 2.5H3.49299C3.88594 2.5 4.22549 2.7745 4.30782 3.15873L6.52551 13.5079C6.60785 13.8922 6.9474 14.1667 7.34035 14.1667H14.1667" stroke="#121212" stroke-width="1.5" stroke-linecap="round" stroke-linejoin="round"/>
<path d="M5 5H16.3923C16.9468 5 17.3467 5.5315 17.193 6.0643L15.7507 11.0643C15.6478 11.421 15.3213 11.6667 14.95 11.6667H6.44231" stroke="#121212" stroke-width="1.5" stroke-linecap="round" stroke-linejoin="round"/>
</svg>
