<svg width="142" height="33" viewBox="0 0 142 33" fill="none" xmlns="http://www.w3.org/2000/svg">
<path d="M16.5232 33C7.41104 33 0 25.5993 0 16.5C0 7.4007 7.41104 0 16.5232 0C25.6354 0 33.0466 7.4007 33.0466 16.5C33.0466 25.5993 25.6354 33 16.5232 33ZM16.5232 3.28985C9.2313 3.28985 3.29438 9.21824 3.29438 16.5C3.29438 23.7818 9.2313 29.7102 16.5232 29.7102C23.8153 29.7102 29.752 23.7818 29.752 16.5C29.752 9.21824 23.8153 3.28985 16.5232 3.28985Z" fill="#fff"/>
<path d="M24.9092 20.4641C24.9092 18.873 21.1555 21.3814 16.5228 21.3814C11.8903 21.3814 8.13647 18.873 8.13647 20.4641C8.13647 22.0552 11.8903 25.4752 16.5228 25.4752C21.1555 25.4752 24.9092 22.0552 24.9092 20.4641Z" fill="#fff"/>
<path d="M25.8172 13.1594C25.8172 12.2195 23.3676 11.4947 19.9258 11.0871C18.8257 10.9567 18.5762 10.5435 18.3665 9.8527C17.8731 8.25021 17.3231 7.43481 16.6029 7.43481C15.8829 7.43481 15.3725 8.23896 14.8453 9.84128C14.6184 10.5265 14.3689 10.9624 13.2745 11.0757C9.74765 11.4438 7.22424 12.2026 7.22424 13.1594C7.22424 14.1164 9.74185 14.9318 13.2745 15.2431C13.9947 15.3055 14.624 15.7867 14.8453 16.4775C15.2534 17.7459 15.8886 18.5613 16.6029 18.5613C17.3173 18.5613 17.9581 17.7402 18.3665 16.4605C18.5877 15.7755 19.2056 15.2941 19.9258 15.2263C23.3734 14.9035 25.8172 14.0994 25.8172 13.1538V13.1594Z" fill="#fff"/>
<path d="M58.3621 14.9885V25.6054H54.3702V15.4302C54.3702 12.7237 52.7938 10.8211 50.0096 10.8211C48.0704 10.8211 45.8306 11.9195 45.4281 13.9693V25.6054H41.4362V7.0442H45.2863V9.0204C45.9838 7.11782 48.5468 6.5686 50.3442 6.5686C55.4021 6.5686 58.3733 10.2265 58.3733 14.9885H58.3621Z" fill="#fff"/>
<path d="M61.082 9.86407C62.6187 7.63312 65.5162 6.5686 68.1585 6.5686C72.848 6.5686 76.2559 8.91287 76.2559 13.8504V25.5996H72.4058V23.9915C71.9633 24.6484 70.9427 25.1976 70.2056 25.4921C69.3268 25.8941 68.119 26.0752 67.1664 26.0752C63.356 26.0752 60.1294 23.9915 60.1294 19.9996C60.1294 16.0077 63.8321 13.9976 67.4953 13.9976C68.9241 13.9976 71.198 14.2921 72.2582 15.351V14.5809C72.2582 13.3011 71.8556 12.4234 70.8633 11.6138C70.4607 11.3193 69.9447 11.1041 69.4004 10.9569C68.8505 10.8494 68.2664 10.7757 67.6427 10.7757C65.6636 10.7757 63.3162 11.5061 62.1085 13.1936L61.082 9.86407ZM72.2582 18.9748C71.6005 17.8423 69.3607 17.5819 68.1926 17.5819C66.724 17.5819 64.161 17.8764 64.161 19.8524C64.161 21.8286 66.7637 22.123 68.1926 22.123C69.5139 22.123 71.6005 21.6077 72.2582 20.3282V18.9748Z" fill="#fff"/>
<path d="M94.0881 9.46209C95.4426 7.51998 97.5694 6.5686 100.393 6.5686C102.298 6.5686 104.13 7.26505 105.558 8.47118C107.315 10.1188 107.979 12.095 107.979 14.4732V25.5996H103.983V15.0565C103.983 12.6047 102.48 10.8096 99.9501 10.8096C98.0445 10.8096 96.0663 11.9083 95.6638 13.8843V25.594H91.6657V15.0507C91.6657 12.5594 90.1644 10.804 87.6005 10.804C87.091 10.804 86.6087 10.8776 86.1373 11.0249C84.8173 11.5402 83.6079 12.4178 83.354 13.8787V25.5884H79.356V7.0442H83.2054V9.0204C83.9034 7.11782 86.4673 6.5686 88.2242 6.5686C90.6449 6.5686 92.6249 7.51998 94.0881 9.46209Z" fill="#fff"/>
<path d="M125.539 19.5637L126.714 22.6722C125.285 25.0901 122.353 26.0752 119.677 26.0752C113.813 26.0752 109.89 22.0155 109.89 16.3419C109.89 10.6682 113.701 6.5686 119.2 6.5686C124.702 6.5686 128.069 11.1438 128.069 16.3021C128.069 16.8514 128.034 17.327 127.962 17.7687H113.962C114.365 20.9169 116.967 21.9758 119.824 21.9758C121.73 21.9758 124.332 21.1321 125.539 19.5579V19.5637ZM123.889 14.1845C123.635 11.8403 121.327 10.7077 119.2 10.7077C116.967 10.7077 114.618 11.8798 114.143 14.1845H123.889Z" fill="#fff"/>
<path d="M140.664 11.6591C139.932 11.1097 139.054 10.8154 138.135 10.8154C136.706 10.8154 135.203 11.5855 134.579 12.9387C134.358 13.3407 134.211 13.7428 134.137 14.1448V25.5996H130.146V7.0442H133.996V9.49599C134.619 7.51998 136.157 6.5686 138.209 6.5686C138.906 6.5686 139.529 6.71583 140.081 6.97058C140.63 7.26504 140.998 7.6275 141.254 8.03511L140.67 11.6591H140.664Z" fill="#fff"/>
</svg>
