<svg width="24" height="24" viewBox="0 0 24 24" fill="none" xmlns="http://www.w3.org/2000/svg">
    <path
        d="M17.694 4.03744C17.2336 3.96218 16.762 4.00503 16.3223 4.16205C15.8827 4.31911 15.4892 4.58528 15.1783 4.93608C14.5847 5.60754 14.4001 6.48176 14.5426 7.35774C14.6717 8.14776 14.843 8.94956 14.8816 9.71065C14.9354 10.857 14.7626 12.0025 14.3732 13.0807C14.0208 14.0563 13.5188 14.8128 12.4429 14.9802C12.3631 14.9929 12.0726 15.002 11.9901 15.0064C11.9077 15.011 11.6468 14.9938 11.5661 14.9812C10.4902 14.8137 9.98367 14.0572 9.63221 13.0752C9.24279 11.9971 9.06997 10.8515 9.12386 9.7052C9.16243 8.94686 9.33368 8.14415 9.46278 7.35233C9.60533 6.47631 9.42064 5.60213 8.82712 4.93063C8.51515 4.58012 8.12075 4.31454 7.6803 4.15841C7.23982 4.00232 6.7675 3.96072 6.30691 4.03744C4.92711 4.26461 4.00815 5.50075 4.00008 6.79758C3.99623 7.29724 4.13068 7.78805 4.38829 8.21475C4.81774 8.92965 5.52242 9.45093 6.13746 9.99208C6.5445 10.3541 7.24829 11.3812 7.59347 12.4943C7.80236 13.1685 7.97271 13.8517 8.14124 14.5413C8.37793 15.5023 8.70338 17.6254 8.91766 18.5892C9.34533 20.5185 10.6543 20.9557 11.966 21H12.0126C13.3242 20.9557 14.6547 20.5176 15.0823 18.5883C15.2957 17.6245 15.6203 15.5006 15.8588 14.5404C16.0282 13.8545 16.1977 13.1676 16.4066 12.4933C16.7517 11.3803 17.4556 10.3495 17.8626 9.99115C18.4776 9.44819 19.1814 8.92875 19.6117 8.21385C19.8694 7.78715 20.0038 7.29634 19.9999 6.79667C19.9928 5.49715 19.0774 4.26007 17.694 4.03744Z"
        fill="currentColor" />
</svg>